<svg width="64" height="64" viewBox="0 0 64 64" fill="none" xmlns="http://www.w3.org/2000/svg">
<rect width="64" height="64" rx="18" fill="#EBBE4F"/>
<path fill-rule="evenodd" clip-rule="evenodd" d="M25.8554 18.1502L19.7111 24.3004L21.9559 26.5467C23.1905 27.7821 24.2154 28.7929 24.2336 28.7929C24.2517 28.7929 26.0007 27.0574 28.1201 24.9362C30.2397 22.8151 31.9862 21.0796 32.0013 21.0796C32.0164 21.0796 33.7627 22.8151 35.8819 24.9362C38.0012 27.0574 39.7501 28.7929 39.7685 28.7929C39.7869 28.7929 40.8102 27.7841 42.0425 26.551C43.6093 24.9832 44.2718 24.2798 44.2457 24.2117C44.2252 24.1581 44.1847 24.1143 44.1557 24.1143C44.1267 24.1143 43.5077 23.5136 42.7801 22.7793C42.0525 22.0451 41.4289 21.4159 41.3942 21.3811C41.3595 21.3462 41.1748 21.1612 40.9837 20.97C40.7927 20.7787 40.6079 20.5939 40.5731 20.5592C40.4905 20.4768 37.8762 17.86 37.7939 17.7773C37.7121 17.695 37.0769 17.0593 36.9727 16.9552C36.868 16.8507 34.276 14.2561 34.1937 14.1735C34.143 14.1225 33.6326 13.6116 33.3811 13.3599C33.351 13.3298 33.0279 13.0115 32.6631 12.6525L31.9997 12L25.8554 18.1502ZM29.6969 29.7417L27.4233 32.0181L29.6967 34.2939C30.947 35.5455 31.9842 36.5696 32.0015 36.5696C32.0187 36.5696 33.0553 35.5455 34.305 34.2939L36.5774 32.0181L34.3049 29.7417C33.0551 28.4897 32.0185 27.4652 32.0015 27.4652C31.9844 27.4652 30.9473 28.4897 29.6969 29.7417ZM15.5634 28.4333C14.4521 29.5425 14.7218 29.2716 13.252 30.7546L12 32.0178L12.8414 32.8696C13.3043 33.3381 13.7152 33.7539 13.7546 33.7935C13.826 33.8654 14.4319 34.4722 14.5843 34.6243C15.5902 35.6288 16.4946 36.5063 16.5241 36.5063C16.5449 36.5063 17.5703 35.4965 18.8027 34.2623L21.0435 32.0181L18.8025 29.7733C17.57 28.5386 16.5392 27.5302 16.5118 27.5324C16.4845 27.5345 16.0577 27.94 15.5634 28.4333ZM45.1856 29.7778L42.9597 32.0182L45.1991 34.2623C46.4307 35.4965 47.4554 36.5063 47.4762 36.5063C47.5059 36.5063 48.0402 36 48.5947 35.4461C48.6295 35.4114 48.8143 35.2266 49.0053 35.0353C49.1964 34.844 49.3773 34.6629 49.4074 34.6327C50.3464 33.6929 50.1303 33.9104 51.1586 32.8696L52 32.0178L50.748 30.7546C49.3001 29.2937 49.1822 29.1752 48.6032 28.5971C47.9682 27.9633 47.5033 27.5294 47.4628 27.533C47.4346 27.5355 46.4099 28.5457 45.1856 29.7778ZM21.9397 37.4948L19.7115 39.7365L20.2975 40.3329C20.6197 40.6609 20.9157 40.9617 20.9551 41.0013C21.0372 41.0839 21.715 41.7624 21.7846 41.8317C21.845 41.8919 24.479 44.5284 24.5723 44.6222C24.6651 44.7153 25.2809 45.3317 25.3851 45.4357C25.4898 45.5403 28.0989 48.152 28.1811 48.2345C28.2629 48.3167 28.9224 48.9768 28.9937 49.0479C29.7376 49.7898 31.7049 51.7601 31.7614 51.8199C31.9885 52.06 32.0164 52.06 32.2399 51.82C32.2816 51.7751 32.5393 51.5152 32.8126 51.2424C33.0858 50.9696 33.3378 50.718 33.3726 50.6832C33.4074 50.6485 33.5922 50.4637 33.7833 50.2724C33.9743 50.0812 34.1591 49.8962 34.1938 49.8615C34.2285 49.8267 34.4094 49.6455 34.5959 49.4589C34.7823 49.2723 34.9633 49.0912 34.998 49.0564C35.0327 49.0216 35.2175 48.8367 35.4086 48.6455C35.5996 48.4542 35.7882 48.2654 35.8275 48.226C35.9206 48.1325 36.8931 47.1592 36.9644 47.0879C36.9946 47.0578 37.1832 46.8692 37.3835 46.6686C37.5839 46.4681 37.7762 46.2755 37.8109 46.2407C37.8457 46.2059 38.0266 46.0248 38.213 45.8382C38.3995 45.6516 38.5804 45.4705 38.6152 45.4357C38.6499 45.401 38.8347 45.216 39.0257 45.0248C39.2168 44.8335 39.4015 44.6485 39.4362 44.6137C39.5183 44.5312 40.4933 43.5554 40.5647 43.4841C40.5948 43.454 40.7758 43.273 40.9668 43.0817C41.1579 42.8904 41.3426 42.7055 41.3774 42.6707C41.4121 42.636 41.5969 42.451 41.7879 42.2598C41.979 42.0685 42.1675 41.8798 42.2069 41.8403C42.2463 41.801 42.4349 41.6122 42.626 41.421C42.817 41.2297 43.0017 41.0447 43.0364 41.0099C43.0711 40.9751 43.3254 40.7157 43.6014 40.4335C43.8774 40.1514 44.1269 39.9205 44.1558 39.9205C44.1847 39.9205 44.225 39.8771 44.2453 39.8241C44.271 39.7572 43.5949 39.0395 42.0417 37.4847C40.8093 36.2512 39.7864 35.2419 39.7686 35.2419C39.7508 35.2419 38.0027 36.9774 35.884 39.0985C33.7652 41.2197 32.0179 42.9552 32.0013 42.9552C31.9846 42.9552 30.2371 41.2197 28.1181 39.0985C25.9991 36.9774 24.2434 35.2444 24.2166 35.2475C24.1898 35.2506 23.1652 36.2619 21.9397 37.4948Z" fill="white"/>
</svg>
