<svg width="223" height="126" viewBox="0 0 223 126" fill="none" xmlns="http://www.w3.org/2000/svg">
<rect x="210.569" y="95.7676" width="13.1606" height="65.803" rx="3.29015" transform="rotate(-180 210.569 95.7676)" fill="#7FD557"/>
<path d="M203.988 103.992V21.7384" stroke="#7FD557" stroke-width="3.29015" stroke-linecap="round"/>
<rect x="177.667" y="112.221" width="13.1606" height="39.4818" rx="3.29015" transform="rotate(-180 177.667 112.221)" fill="#7FD557"/>
<path d="M171.087 117.156V67.804" stroke="#7FD557" stroke-width="3.29015" stroke-linecap="round"/>
<rect x="144.766" y="96.4219" width="13.1606" height="60.5388" rx="3.29015" transform="rotate(-180 144.766 96.4219)" fill="#7FD557"/>
<path d="M138.186 103.992V28.3188" stroke="#7FD557" stroke-width="3.29015" stroke-linecap="round"/>
<rect x="111.864" y="114.852" width="13.1606" height="44.746" rx="3.29015" transform="rotate(-180 111.864 114.852)" fill="#7FD557"/>
<path d="M105.284 120.443V64.5108" stroke="#7FD557" stroke-width="3.29015" stroke-linecap="round"/>
<rect x="78.9629" y="137.883" width="13.1606" height="44.746" rx="3.29015" transform="rotate(-180 78.9629 137.883)" fill="#7FD557"/>
<path d="M72.3823 143.475V87.5421" stroke="#7FD557" stroke-width="3.29015" stroke-linecap="round"/>
<rect x="46.0615" y="140.184" width="13.1606" height="26.3212" rx="3.29015" transform="rotate(-180 46.0615 140.184)" fill="#7FD557"/>
<path d="M39.481 143.475V110.573" stroke="#7FD557" stroke-width="3.29015" stroke-linecap="round"/>
<rect x="227.021" y="54.3164" width="13.1606" height="28.9533" rx="3.29015" transform="rotate(-180 227.021 54.3164)" fill="#D94C4C"/>
<path d="M220.44 57.9336V21.7419" stroke="#D94C4C" stroke-width="3.29015" stroke-linecap="round"/>
<rect x="194.119" y="80.6387" width="13.1606" height="28.9533" rx="3.29015" transform="rotate(-180 194.119 80.6387)" fill="#D94C4C"/>
<path d="M187.539 84.2559V48.0642" stroke="#D94C4C" stroke-width="3.29015" stroke-linecap="round"/>
<rect x="161.216" y="88.8574" width="13.1606" height="42.1139" rx="3.29015" transform="rotate(-180 161.216 88.8574)" fill="#D94C4C"/>
<path d="M154.636 94.1211V41.4787" stroke="#D94C4C" stroke-width="3.29015" stroke-linecap="round"/>
<rect x="128.315" y="83.2637" width="13.1606" height="34.2176" rx="3.29015" transform="rotate(-180 128.315 83.2637)" fill="#D94C4C"/>
<path d="M121.735 87.543V44.771" stroke="#D94C4C" stroke-width="3.29015" stroke-linecap="round"/>
<rect x="95.4141" y="99.0586" width="13.1606" height="13.1606" rx="3.29015" transform="rotate(-180 95.4141 99.0586)" fill="#D94C4C"/>
<path d="M88.834 100.703V84.2524" stroke="#D94C4C" stroke-width="3.29015" stroke-linecap="round"/>
<rect x="62.5122" y="127.68" width="13.1606" height="21.057" rx="3.29015" transform="rotate(-180 62.5122 127.68)" fill="#D94C4C"/>
<path d="M55.9321 130.314V103.993" stroke="#D94C4C" stroke-width="3.29015" stroke-linecap="round"/>
<path d="M23.0308 143.475V127.024" stroke="#D94C4C" stroke-width="3.29015" stroke-linecap="round"/>
</svg>
