<svg width="174" height="27" viewBox="0 0 174 27" fill="none" xmlns="http://www.w3.org/2000/svg">
<path d="M17.5967 24.292C17.4057 24.3477 17.2526 24.4749 17.0853 24.5735C15.7105 25.3796 14.3372 26.1874 12.9545 27C12.2821 26.6072 11.6144 26.216 10.9452 25.8249C10.1307 25.3494 9.31466 24.874 8.50019 24.4001C8.45284 24.3731 8.39917 24.3524 8.35024 24.3286C8.18134 24.1982 7.99983 24.0885 7.8041 24.0026C7.49315 23.7768 7.15221 23.5987 6.82389 23.4031C5.94786 22.8816 5.06867 22.3632 4.19106 21.8432C4.13739 21.8035 4.08372 21.7637 4.0127 21.7112C4.0127 21.5761 4.0127 21.4346 4.0127 21.2915C4.01585 21.2008 4.02217 21.1102 4.02217 21.018C4.02217 19.5439 4.02217 18.0699 4.02217 16.5959C4.0853 16.5466 4.14686 16.502 4.20684 16.4559C4.4152 16.3494 4.62513 16.2476 4.81454 16.1077C5.92892 15.4573 7.04487 14.8086 8.15925 14.1566C8.1703 14.1502 8.17345 14.1328 8.1845 14.1137C8.19082 14.0246 8.19555 13.9276 8.20344 13.8179C7.08275 13.166 5.96838 12.5172 4.85242 11.8684C4.63618 11.7428 4.41993 11.6172 4.20526 11.4916C4.14371 11.4471 4.08373 11.4009 4.02848 11.3612C4.02848 9.655 4.02848 7.95676 4.02848 6.25852C4.0853 6.21241 4.14055 6.16946 4.19422 6.12653C4.40257 5.99455 4.61092 5.86416 4.81928 5.73218C5.48853 5.34261 6.16095 4.9578 6.82705 4.56345C7.16799 4.36151 7.52472 4.18341 7.84514 3.94649C8.04876 3.87493 8.22081 3.74772 8.39601 3.62528C9.78188 2.82227 11.1662 2.01926 12.552 1.21784C12.672 1.14788 12.7935 1.07792 12.9261 1C13.2939 1.21149 13.6617 1.42456 14.0295 1.63764C15.1549 2.29117 16.2787 2.94471 17.4041 3.59825C17.4404 3.61892 17.4799 3.63324 17.5178 3.65073C17.6977 3.79543 17.9156 3.86698 18.1129 3.97987C18.3102 4.09754 18.5059 4.2168 18.7048 4.33129C19.5145 4.7972 20.3243 5.25991 21.134 5.72423C21.325 5.86257 21.5381 5.95958 21.7527 6.05657C21.8411 6.1011 21.8474 6.179 21.8474 6.26805C21.8459 7.91064 21.8459 9.55323 21.849 11.1958C21.849 11.2912 21.8222 11.3564 21.748 11.4073C21.5444 11.5361 21.3408 11.6649 21.1371 11.7937C19.9912 12.4615 18.8453 13.131 17.7088 13.7925C17.6962 13.9308 17.6867 14.0421 17.6772 14.1566C18.8358 14.8308 19.9833 15.5003 21.1308 16.1681C21.3329 16.2985 21.5381 16.4257 21.7575 16.5275C21.868 16.5752 21.8443 16.6738 21.8443 16.7628C21.8474 18.248 21.849 19.7347 21.8522 21.2199C21.8506 21.3105 21.8506 21.4012 21.8443 21.4902C21.8364 21.6015 21.8869 21.7303 21.7606 21.8114C21.3281 22.0643 20.8941 22.3123 20.4632 22.5683C19.685 23.031 18.91 23.4969 18.135 23.9613C17.9487 24.0583 17.7546 24.1441 17.5967 24.292ZM12.2079 16.5227C12.1874 16.5052 12.1701 16.483 12.1464 16.4686C11.0667 15.8358 9.9855 15.2045 8.90585 14.5716C8.87428 14.5541 8.84587 14.5351 8.80798 14.5685C8.82219 16.0393 8.78904 17.5165 8.82851 19.0033C10.2128 19.8142 11.5845 20.6204 12.9514 21.4219C14.2331 20.6697 15.4958 19.9287 16.7775 19.1766C15.8746 18.6487 15.0018 18.1335 14.1242 17.6278C13.6711 17.3671 13.2355 17.0713 12.7588 16.8535C12.5741 16.7421 12.391 16.6324 12.2079 16.5227ZM12.6578 10.8587C12.8425 10.9955 13.0382 11.1131 13.2465 11.2133C14.5203 11.9607 15.7941 12.7096 17.0885 13.4697C17.0885 11.9495 17.0885 10.4691 17.0885 8.9808C15.6931 8.16666 14.3009 7.3541 12.9261 6.5511C11.635 7.3064 10.3801 8.04103 9.09684 8.79156C9.85291 9.23361 10.5743 9.65817 11.2988 10.078C11.7502 10.3387 12.189 10.625 12.6578 10.8587Z" fill="#FA0100"/>
<path d="M18.1107 3.97781C17.9134 3.8665 17.694 3.79336 17.5156 3.64866C18.3443 3.16685 19.1746 2.68663 20.0032 2.20483C20.3663 1.99493 20.7356 1.79299 21.0908 1.57037C21.3402 1.41454 21.5612 1.4225 21.8121 1.57515C23.0828 2.34158 24.3581 3.10006 25.6351 3.85537C25.8829 4.00166 25.9997 4.19565 25.9997 4.48982C25.995 10.828 25.995 17.1662 25.9997 23.5044C25.9997 23.824 25.875 24.0308 25.602 24.185C24.3708 24.8799 23.1459 25.5843 21.9384 26.3205C21.618 26.5161 21.3291 26.5145 21.0008 26.3173C19.9259 25.6733 18.8399 25.05 17.7587 24.4171C17.7003 24.3822 17.6261 24.3647 17.5977 24.2899C17.754 24.142 17.9497 24.0562 18.1359 23.956C18.8825 24.3949 19.6292 24.8338 20.3773 25.271C20.7435 25.4857 21.1113 25.6972 21.4743 25.9071C22.6961 25.1963 23.902 24.4951 25.1316 23.7795C24.7606 23.5632 24.4165 23.3629 24.074 23.1609C23.3038 22.7094 22.5319 22.2562 21.7616 21.8046C21.8879 21.7235 21.8374 21.5947 21.8453 21.4834C21.8516 21.3928 21.85 21.3021 21.8532 21.2131C23.0307 21.892 24.2082 22.5694 25.4031 23.2579C25.4031 16.9468 25.4031 10.6754 25.4031 4.39124C24.1956 3.6725 22.9912 2.95537 21.7521 2.21914C21.7521 3.53099 21.7521 4.79035 21.7521 6.04972C21.5391 5.95273 21.3244 5.85574 21.1334 5.7174C21.1334 4.56297 21.1334 3.41014 21.1334 2.21596C20.7988 2.40836 20.5036 2.57691 20.2084 2.74864C19.5092 3.16048 18.8099 3.56915 18.1107 3.97781Z" fill="#C4B779"/>
<path d="M4.01076 21.2904C4.01076 21.4336 4.01076 21.5751 4.01076 21.7102C4.08179 21.7627 4.13546 21.8025 4.18912 21.8422C3.08427 22.4815 1.98094 23.1207 0.839729 23.7806C2.08512 24.5041 3.29735 25.2085 4.50165 25.9081C5.61287 25.2657 6.70831 24.6329 7.80216 24.0016C7.99789 24.0875 8.17941 24.1972 8.3483 24.3276C7.84794 24.6615 7.31285 24.9366 6.7967 25.2435C6.15428 25.6267 5.50396 25.9988 4.85996 26.382C4.61846 26.5251 4.39905 26.5251 4.15282 26.382C2.85539 25.6203 1.55318 24.8682 0.250972 24.1145C0.153109 24.0572 0.0631375 23.9937 0 23.8855C0 17.2897 0 10.686 0 4.06633C0.596649 3.70856 1.19646 3.34919 1.79626 2.98982C2.55865 2.53346 3.32419 2.08346 4.08021 1.61438C4.37538 1.43152 4.62793 1.41879 4.93415 1.60165C6.08167 2.28699 7.24024 2.95166 8.39566 3.62428C8.22045 3.74512 8.0484 3.87393 7.84478 3.94548C7.8069 3.92958 7.76428 3.92004 7.72956 3.89937C7.04609 3.50343 6.36421 3.10749 5.68075 2.71155C5.4061 2.55254 5.12829 2.39512 4.81892 2.21862C4.81892 3.41916 4.81892 4.57517 4.81892 5.73277C4.61057 5.86475 4.40221 5.99514 4.19386 6.12712C4.19386 4.8423 4.19386 3.55909 4.19386 2.2377C2.97062 2.96597 1.7789 3.67835 0.591914 4.38595C0.591914 10.678 0.591914 16.9558 0.591914 23.2606C1.17278 22.9235 1.72523 22.5975 2.28242 22.2795C2.85697 21.9488 3.41732 21.5894 4.01076 21.2904Z" fill="#C4B779"/>
<path d="M4.85273 11.8675C4.80222 11.9088 4.81011 11.9676 4.81011 12.0233C4.81169 13.3844 4.81326 14.7456 4.81484 16.1067C4.62543 16.2466 4.4155 16.3484 4.20715 16.4549C4.20715 14.8012 4.20557 13.1459 4.20557 11.4922C4.42023 11.6162 4.63648 11.7418 4.85273 11.8675Z" fill="#C4B779"/>
<path d="M21.1309 16.1647C21.1751 16.1107 21.1656 16.0455 21.1656 15.9835C21.1656 14.6398 21.1656 13.2962 21.1656 11.9509C21.1656 11.8953 21.1751 11.838 21.1356 11.7887C21.3392 11.6599 21.5428 11.5311 21.7465 11.4023C21.7496 12.7651 21.7512 14.1278 21.7543 15.4905C21.7543 15.834 21.7559 16.179 21.7575 16.5225C21.5381 16.4207 21.3329 16.2951 21.1309 16.1647Z" fill="#C4B779"/>
<path d="M12.6577 10.859C12.6577 9.62192 12.6577 8.38323 12.6577 7.15089C12.7414 7.05708 12.8424 7.01096 12.9355 6.96484C13.0571 6.99188 13.1486 7.05548 13.2559 7.12067C13.2559 7.18269 13.2559 7.2463 13.2559 7.30831C13.2559 8.54701 13.2559 9.78412 13.2559 11.0228C13.2559 11.0864 13.2496 11.1484 13.2465 11.212C13.0381 11.1134 12.8424 10.9958 12.6577 10.859Z" fill="#C4B779"/>
<path d="M12.7569 16.8526C11.8588 17.3773 10.9591 17.9037 10.0609 18.4284C9.81943 18.5699 9.57793 18.7083 9.33328 18.8498C9.23226 18.8132 9.14702 18.756 9.06494 18.6781C9.06494 18.5763 9.06494 18.4729 9.06494 18.3378C10.1036 17.7383 11.1548 17.1309 12.206 16.5234C12.3907 16.6332 12.5738 16.7429 12.7569 16.8526Z" fill="#C4B779"/>
<path d="M41.948 4.172C42.4147 4.18133 42.8953 4.20467 43.39 4.242C43.894 4.27933 44.3933 4.354 44.888 4.466L44.79 5.46C44.3887 5.44133 43.936 5.42733 43.432 5.418C42.9373 5.40867 42.4567 5.404 41.99 5.404C41.6633 5.404 41.3833 5.41333 41.15 5.432C40.9167 5.45067 40.7253 5.502 40.576 5.586C40.4267 5.67 40.3147 5.80533 40.24 5.992C40.1747 6.17867 40.142 6.43533 40.142 6.762C40.142 7.25667 40.2353 7.60667 40.422 7.812C40.6087 8.008 40.912 8.15733 41.332 8.26L43.278 8.778C44.0247 8.96467 44.538 9.282 44.818 9.73C45.098 10.1687 45.238 10.7613 45.238 11.508C45.238 12.068 45.1727 12.5207 45.042 12.866C44.9207 13.2113 44.7247 13.4773 44.454 13.664C44.1927 13.8507 43.852 13.9813 43.432 14.056C43.012 14.1307 42.5127 14.168 41.934 14.168C41.6167 14.168 41.1967 14.154 40.674 14.126C40.1513 14.098 39.5493 14.0187 38.868 13.888L38.966 12.866C39.5167 12.8847 39.9647 12.9033 40.31 12.922C40.6647 12.9313 40.968 12.936 41.22 12.936C41.472 12.936 41.724 12.936 41.976 12.936C42.4427 12.936 42.8113 12.9033 43.082 12.838C43.3527 12.7633 43.544 12.6233 43.656 12.418C43.768 12.2033 43.824 11.8953 43.824 11.494C43.824 11.1487 43.782 10.878 43.698 10.682C43.6233 10.486 43.4973 10.3413 43.32 10.248C43.152 10.1453 42.9327 10.0613 42.662 9.996L40.66 9.45C39.96 9.254 39.4653 8.93667 39.176 8.498C38.8867 8.05933 38.742 7.476 38.742 6.748C38.742 6.188 38.8027 5.73533 38.924 5.39C39.0547 5.04467 39.2507 4.788 39.512 4.62C39.7733 4.44267 40.1047 4.326 40.506 4.27C40.9073 4.20467 41.388 4.172 41.948 4.172ZM55.3657 7C55.963 7 56.4157 7.15867 56.7237 7.476C57.041 7.79333 57.1997 8.26 57.1997 8.876V14H55.8557V9.268C55.8557 8.876 55.7764 8.59133 55.6177 8.414C55.4684 8.22733 55.2117 8.134 54.8477 8.134C54.6237 8.134 54.409 8.17133 54.2037 8.246C53.9984 8.32067 53.7697 8.43733 53.5177 8.596C53.2657 8.74533 52.9624 8.95067 52.6077 9.212L52.5377 8.302C53.023 7.86333 53.4944 7.53667 53.9517 7.322C54.409 7.10733 54.8804 7 55.3657 7ZM48.0857 7.168L48.1837 8.484L48.3237 8.68V14H46.9797V7.168H48.0857ZM50.9277 7C51.5157 7 51.9637 7.15867 52.2717 7.476C52.5797 7.784 52.7384 8.25067 52.7477 8.876V14H51.4457V9.268C51.4457 8.85733 51.3617 8.568 51.1937 8.4C51.0257 8.22267 50.7737 8.134 50.4377 8.134C50.2137 8.134 49.999 8.17133 49.7937 8.246C49.5884 8.31133 49.355 8.42333 49.0937 8.582C48.8417 8.73133 48.5337 8.94133 48.1697 9.212L48.0857 8.302C48.571 7.86333 49.0424 7.53667 49.4997 7.322C49.957 7.10733 50.433 7 50.9277 7ZM62.547 7C63.0697 7 63.5084 7.07 63.863 7.21C64.227 7.34067 64.4977 7.56933 64.675 7.896C64.8617 8.22267 64.955 8.67067 64.955 9.24V14H63.891L63.681 12.516L63.597 12.348V9.24C63.597 8.83867 63.5037 8.54933 63.317 8.372C63.1304 8.19467 62.7757 8.106 62.253 8.106C61.8984 8.106 61.4504 8.12467 60.909 8.162C60.377 8.19933 59.8497 8.23667 59.327 8.274L59.201 7.308C59.5184 7.252 59.8684 7.20067 60.251 7.154C60.643 7.10733 61.0397 7.07 61.441 7.042C61.8424 7.014 62.211 7 62.547 7ZM64.339 9.786L64.325 10.738L61.105 10.752C60.7877 10.7613 60.5637 10.8453 60.433 11.004C60.3117 11.1533 60.251 11.3633 60.251 11.634V12.054C60.251 12.39 60.3304 12.6373 60.489 12.796C60.657 12.9453 60.9184 13.02 61.273 13.02C61.5344 13.02 61.8237 12.9733 62.141 12.88C62.4677 12.7773 62.7944 12.628 63.121 12.432C63.4477 12.2267 63.7417 11.97 64.003 11.662V12.544C63.9097 12.6747 63.7697 12.8333 63.583 13.02C63.3964 13.1973 63.1677 13.37 62.897 13.538C62.6357 13.706 62.3417 13.846 62.015 13.958C61.6977 14.07 61.3477 14.126 60.965 14.126C60.5544 14.126 60.1904 14.056 59.873 13.916C59.565 13.7667 59.3224 13.552 59.145 13.272C58.9677 12.9827 58.879 12.6327 58.879 12.222V11.48C58.879 10.948 59.047 10.5327 59.383 10.234C59.7284 9.93533 60.2044 9.786 60.811 9.786H64.339ZM68.0453 7.168L68.2133 8.484L68.3393 8.68V14H66.9953V7.168H68.0453ZM71.3913 7L71.2513 8.26H70.8173C70.4346 8.26 70.0426 8.33467 69.6413 8.484C69.2493 8.63333 68.7686 8.848 68.1993 9.128L68.1013 8.302C68.596 7.89133 69.0953 7.574 69.5993 7.35C70.1126 7.11667 70.6073 7 71.0833 7H71.3913ZM74.5728 5.166V12.054C74.5728 12.3713 74.6381 12.6 74.7688 12.74C74.9088 12.8707 75.1421 12.936 75.4688 12.936H76.4768L76.6308 13.93C76.4721 13.9767 76.2901 14.014 76.0848 14.042C75.8888 14.07 75.6881 14.0887 75.4828 14.098C75.2868 14.1167 75.1281 14.126 75.0068 14.126C74.4281 14.126 73.9848 13.9673 73.6768 13.65C73.3688 13.3327 73.2148 12.8753 73.2148 12.278V5.166H74.5728ZM76.7008 7.168V8.176H71.9828V7.238L73.3268 7.168H76.7008ZM92.8947 4.34L91.0047 13.594C90.9767 13.706 90.916 13.804 90.8227 13.888C90.7293 13.9627 90.6127 14 90.4727 14H88.9607C88.8207 14 88.6993 13.9627 88.5967 13.888C88.5033 13.804 88.4473 13.7013 88.4287 13.58L87.0007 6.496C86.9633 6.30933 86.926 6.12267 86.8887 5.936C86.8513 5.74 86.814 5.55333 86.7767 5.376H86.4967C86.4593 5.55333 86.422 5.74 86.3847 5.936C86.3567 6.132 86.324 6.31867 86.2867 6.496L84.8727 13.58C84.8447 13.7013 84.7793 13.804 84.6767 13.888C84.5833 13.9627 84.4713 14 84.3407 14H82.8147C82.6747 14 82.5533 13.9627 82.4507 13.888C82.3573 13.804 82.3013 13.706 82.2827 13.594L80.3927 4.34H81.8487L83.2627 11.718C83.3 11.9047 83.3327 12.1007 83.3607 12.306C83.3887 12.5113 83.4213 12.726 83.4587 12.95H83.7667C83.804 12.7353 83.8413 12.5253 83.8787 12.32C83.916 12.1147 83.9533 11.914 83.9907 11.718L85.4047 4.788C85.4233 4.65733 85.4793 4.55 85.5727 4.466C85.6753 4.382 85.7967 4.34 85.9367 4.34H87.3507C87.4907 4.34 87.6073 4.382 87.7007 4.466C87.794 4.55 87.8547 4.65733 87.8827 4.788L89.2967 11.718C89.3433 11.9327 89.3807 12.1427 89.4087 12.348C89.446 12.544 89.474 12.7447 89.4927 12.95H89.8427C89.8613 12.7447 89.8847 12.5393 89.9127 12.334C89.9407 12.1287 89.9733 11.928 90.0107 11.732L91.4387 4.34H92.8947ZM97.4923 7C98.015 7 98.4537 7.07 98.8083 7.21C99.1723 7.34067 99.443 7.56933 99.6203 7.896C99.807 8.22267 99.9003 8.67067 99.9003 9.24V14H98.8363L98.6263 12.516L98.5423 12.348V9.24C98.5423 8.83867 98.449 8.54933 98.2623 8.372C98.0757 8.19467 97.721 8.106 97.1983 8.106C96.8437 8.106 96.3957 8.12467 95.8543 8.162C95.3223 8.19933 94.795 8.23667 94.2723 8.274L94.1463 7.308C94.4637 7.252 94.8137 7.20067 95.1963 7.154C95.5883 7.10733 95.985 7.07 96.3863 7.042C96.7877 7.014 97.1563 7 97.4923 7ZM99.2843 9.786L99.2703 10.738L96.0503 10.752C95.733 10.7613 95.509 10.8453 95.3783 11.004C95.257 11.1533 95.1963 11.3633 95.1963 11.634V12.054C95.1963 12.39 95.2757 12.6373 95.4343 12.796C95.6023 12.9453 95.8637 13.02 96.2183 13.02C96.4797 13.02 96.769 12.9733 97.0863 12.88C97.413 12.7773 97.7397 12.628 98.0663 12.432C98.393 12.2267 98.687 11.97 98.9483 11.662V12.544C98.855 12.6747 98.715 12.8333 98.5283 13.02C98.3417 13.1973 98.113 13.37 97.8423 13.538C97.581 13.706 97.287 13.846 96.9603 13.958C96.643 14.07 96.293 14.126 95.9103 14.126C95.4997 14.126 95.1357 14.056 94.8183 13.916C94.5103 13.7667 94.2677 13.552 94.0903 13.272C93.913 12.9827 93.8243 12.6327 93.8243 12.222V11.48C93.8243 10.948 93.9923 10.5327 94.3283 10.234C94.6737 9.93533 95.1497 9.786 95.7563 9.786H99.2843ZM103.299 4.2L103.285 12.054C103.285 12.3433 103.364 12.5627 103.523 12.712C103.691 12.8613 103.919 12.936 104.209 12.936H104.853L105.007 13.93C104.913 13.9767 104.783 14.014 104.615 14.042C104.456 14.07 104.288 14.0887 104.111 14.098C103.943 14.1167 103.798 14.126 103.677 14.126C103.154 14.126 102.734 13.9767 102.417 13.678C102.109 13.3793 101.955 12.9453 101.955 12.376V4.2H103.299ZM107.537 4.2L107.523 12.054C107.523 12.3433 107.602 12.5627 107.761 12.712C107.929 12.8613 108.158 12.936 108.447 12.936H109.091L109.245 13.93C109.152 13.9767 109.021 14.014 108.853 14.042C108.694 14.07 108.526 14.0887 108.349 14.098C108.181 14.1167 108.036 14.126 107.915 14.126C107.392 14.126 106.972 13.9767 106.655 13.678C106.347 13.3793 106.193 12.9453 106.193 12.376V4.2H107.537ZM113.301 7C114.356 7 115.117 7.19133 115.583 7.574C116.059 7.94733 116.297 8.50267 116.297 9.24C116.307 9.856 116.171 10.332 115.891 10.668C115.621 11.004 115.177 11.172 114.561 11.172H110.613V10.206H114.211C114.519 10.206 114.72 10.108 114.813 9.912C114.907 9.716 114.953 9.492 114.953 9.24C114.944 8.82 114.818 8.52133 114.575 8.344C114.342 8.16667 113.936 8.078 113.357 8.078C112.881 8.078 112.508 8.148 112.237 8.288C111.967 8.428 111.775 8.67067 111.663 9.016C111.561 9.36133 111.509 9.84667 111.509 10.472C111.509 11.172 111.575 11.7087 111.705 12.082C111.845 12.446 112.065 12.698 112.363 12.838C112.671 12.978 113.077 13.048 113.581 13.048C113.936 13.048 114.333 13.034 114.771 13.006C115.219 12.9687 115.625 12.9267 115.989 12.88L116.129 13.762C115.905 13.8553 115.635 13.9347 115.317 14C115 14.056 114.673 14.098 114.337 14.126C114.001 14.154 113.693 14.168 113.413 14.168C112.611 14.168 111.967 14.0467 111.481 13.804C110.996 13.5613 110.641 13.1787 110.417 12.656C110.193 12.124 110.081 11.4287 110.081 10.57C110.081 9.674 110.193 8.96467 110.417 8.442C110.641 7.91933 110.991 7.55067 111.467 7.336C111.943 7.112 112.555 7 113.301 7ZM119.895 5.166V12.054C119.895 12.3713 119.96 12.6 120.091 12.74C120.231 12.8707 120.464 12.936 120.791 12.936H121.799L121.953 13.93C121.794 13.9767 121.612 14.014 121.407 14.042C121.211 14.07 121.01 14.0887 120.805 14.098C120.609 14.1167 120.45 14.126 120.329 14.126C119.75 14.126 119.307 13.9673 118.999 13.65C118.691 13.3327 118.537 12.8753 118.537 12.278V5.166H119.895ZM122.023 7.168V8.176H117.305V7.238L118.649 7.168H122.023ZM129.919 4.34V14H128.519V4.34H129.919ZM132.999 4.34V5.544H125.453V4.34H132.999ZM135.779 7C136.582 7 137.221 7.11667 137.697 7.35C138.183 7.58333 138.528 7.966 138.733 8.498C138.948 9.02067 139.055 9.716 139.055 10.584C139.055 11.4613 138.948 12.166 138.733 12.698C138.528 13.2207 138.183 13.5987 137.697 13.832C137.221 14.0653 136.582 14.182 135.779 14.182C134.986 14.182 134.347 14.0653 133.861 13.832C133.385 13.5987 133.04 13.2207 132.825 12.698C132.611 12.166 132.503 11.4613 132.503 10.584C132.503 9.716 132.611 9.02067 132.825 8.498C133.04 7.966 133.385 7.58333 133.861 7.35C134.347 7.11667 134.986 7 135.779 7ZM135.779 8.092C135.313 8.092 134.944 8.16667 134.673 8.316C134.403 8.46533 134.211 8.722 134.099 9.086C133.987 9.44067 133.931 9.94 133.931 10.584C133.931 11.228 133.987 11.732 134.099 12.096C134.211 12.46 134.403 12.7167 134.673 12.866C134.944 13.006 135.313 13.076 135.779 13.076C136.246 13.076 136.615 13.006 136.885 12.866C137.165 12.7167 137.361 12.46 137.473 12.096C137.585 11.732 137.641 11.228 137.641 10.584C137.641 9.94 137.585 9.44067 137.473 9.086C137.361 8.722 137.165 8.46533 136.885 8.316C136.615 8.16667 136.246 8.092 135.779 8.092ZM146.619 7.168L144.533 9.646C144.468 9.73933 144.384 9.83733 144.281 9.94C144.178 10.0333 144.094 10.1033 144.029 10.15V10.178C144.094 10.2247 144.178 10.3087 144.281 10.43C144.384 10.542 144.468 10.654 144.533 10.766L146.843 14H145.275L142.643 10.094L145.051 7.168H146.619ZM142.181 4.2L142.195 8.498C142.195 8.79667 142.181 9.07667 142.153 9.338C142.134 9.59 142.097 9.856 142.041 10.136C142.097 10.3973 142.134 10.6633 142.153 10.934C142.172 11.2047 142.181 11.4613 142.181 11.704V14H140.837V4.2H142.181ZM143.315 9.674V10.626H141.719V9.674H143.315ZM150.748 7C151.803 7 152.564 7.19133 153.03 7.574C153.506 7.94733 153.744 8.50267 153.744 9.24C153.754 9.856 153.618 10.332 153.338 10.668C153.068 11.004 152.624 11.172 152.008 11.172H148.06V10.206H151.658C151.966 10.206 152.167 10.108 152.26 9.912C152.354 9.716 152.4 9.492 152.4 9.24C152.391 8.82 152.265 8.52133 152.022 8.344C151.789 8.16667 151.383 8.078 150.804 8.078C150.328 8.078 149.955 8.148 149.684 8.288C149.414 8.428 149.222 8.67067 149.11 9.016C149.008 9.36133 148.956 9.84667 148.956 10.472C148.956 11.172 149.022 11.7087 149.152 12.082C149.292 12.446 149.512 12.698 149.81 12.838C150.118 12.978 150.524 13.048 151.028 13.048C151.383 13.048 151.78 13.034 152.218 13.006C152.666 12.9687 153.072 12.9267 153.436 12.88L153.576 13.762C153.352 13.8553 153.082 13.9347 152.764 14C152.447 14.056 152.12 14.098 151.784 14.126C151.448 14.154 151.14 14.168 150.86 14.168C150.058 14.168 149.414 14.0467 148.928 13.804C148.443 13.5613 148.088 13.1787 147.864 12.656C147.64 12.124 147.528 11.4287 147.528 10.57C147.528 9.674 147.64 8.96467 147.864 8.442C148.088 7.91933 148.438 7.55067 148.914 7.336C149.39 7.112 150.002 7 150.748 7ZM159.722 7C160.964 7 161.584 7.62533 161.584 8.876V14H160.226V9.268C160.226 8.83867 160.156 8.54467 160.016 8.386C159.876 8.218 159.638 8.134 159.302 8.134C158.901 8.134 158.5 8.232 158.098 8.428C157.697 8.61467 157.216 8.876 156.656 9.212L156.6 8.302C157.123 7.882 157.646 7.56 158.168 7.336C158.691 7.112 159.209 7 159.722 7ZM156.572 7.168L156.698 8.484L156.796 8.68V14H155.452V7.168H156.572Z" fill="#9A9AAB"/>
<path d="M40.664 19.384C40.904 19.384 41.1093 19.3893 41.28 19.4C41.4507 19.4107 41.608 19.4293 41.752 19.456C41.896 19.4773 42.0453 19.5093 42.2 19.552L42.12 20.152C41.96 20.136 41.8107 20.1253 41.672 20.12C41.5333 20.1093 41.384 20.1013 41.224 20.096C41.0693 20.0907 40.8827 20.088 40.664 20.088C40.3227 20.088 40.0533 20.1547 39.856 20.288C39.6587 20.4213 39.5173 20.6453 39.432 20.96C39.352 21.2693 39.312 21.696 39.312 22.24C39.312 22.784 39.352 23.2133 39.432 23.528C39.5173 23.8373 39.6587 24.0587 39.856 24.192C40.0533 24.3253 40.3227 24.392 40.664 24.392C41.0107 24.392 41.3013 24.3867 41.536 24.376C41.776 24.36 42.008 24.336 42.232 24.304L42.312 24.904C42.0773 24.9733 41.8347 25.0213 41.584 25.048C41.3387 25.08 41.032 25.096 40.664 25.096C40.1307 25.096 39.7013 25.0053 39.376 24.824C39.056 24.6373 38.824 24.336 38.68 23.92C38.536 23.504 38.464 22.944 38.464 22.24C38.464 21.536 38.536 20.976 38.68 20.56C38.824 20.144 39.056 19.8453 39.376 19.664C39.7013 19.4773 40.1307 19.384 40.664 19.384ZM44.8739 21C45.3326 21 45.6979 21.0667 45.9699 21.2C46.2473 21.3333 46.4446 21.552 46.5619 21.856C46.6846 22.1547 46.7459 22.552 46.7459 23.048C46.7459 23.5493 46.6846 23.952 46.5619 24.256C46.4446 24.5547 46.2473 24.7707 45.9699 24.904C45.6979 25.0373 45.3326 25.104 44.8739 25.104C44.4206 25.104 44.0553 25.0373 43.7779 24.904C43.5059 24.7707 43.3086 24.5547 43.1859 24.256C43.0633 23.952 43.0019 23.5493 43.0019 23.048C43.0019 22.552 43.0633 22.1547 43.1859 21.856C43.3086 21.552 43.5059 21.3333 43.7779 21.2C44.0553 21.0667 44.4206 21 44.8739 21ZM44.8739 21.624C44.6073 21.624 44.3966 21.6667 44.2419 21.752C44.0873 21.8373 43.9779 21.984 43.9139 22.192C43.8499 22.3947 43.8179 22.68 43.8179 23.048C43.8179 23.416 43.8499 23.704 43.9139 23.912C43.9779 24.12 44.0873 24.2667 44.2419 24.352C44.3966 24.432 44.6073 24.472 44.8739 24.472C45.1406 24.472 45.3513 24.432 45.5059 24.352C45.6659 24.2667 45.7779 24.12 45.8419 23.912C45.9059 23.704 45.9379 23.416 45.9379 23.048C45.9379 22.68 45.9059 22.3947 45.8419 22.192C45.7779 21.984 45.6659 21.8373 45.5059 21.752C45.3513 21.6667 45.1406 21.624 44.8739 21.624ZM50.0601 21C50.5401 21 50.8841 21.176 51.0921 21.528C51.3001 21.88 51.4041 22.3947 51.4041 23.072C51.4041 23.5787 51.3507 23.9813 51.2441 24.28C51.1374 24.5733 50.9747 24.784 50.7561 24.912C50.5427 25.0347 50.2681 25.096 49.9321 25.096C49.6707 25.096 49.4147 25.0613 49.1641 24.992C48.9187 24.9173 48.6814 24.8053 48.4521 24.656L48.5001 24.224C48.7347 24.2933 48.9427 24.3493 49.1241 24.392C49.3107 24.4347 49.5081 24.456 49.7161 24.456C49.9347 24.456 50.1081 24.4187 50.2361 24.344C50.3694 24.2693 50.4654 24.1307 50.5241 23.928C50.5827 23.7253 50.6121 23.44 50.6121 23.072C50.6121 22.7093 50.5827 22.4267 50.5241 22.224C50.4707 22.016 50.3827 21.8693 50.2601 21.784C50.1427 21.6933 49.9854 21.648 49.7881 21.648C49.5854 21.648 49.3854 21.696 49.1881 21.792C48.9907 21.8827 48.7641 22.0267 48.5081 22.224L48.4281 21.744C48.5614 21.5947 48.7161 21.464 48.8921 21.352C49.0734 21.24 49.2654 21.1547 49.4681 21.096C49.6707 21.032 49.8681 21 50.0601 21ZM48.3961 21.096L48.4761 21.888L48.5321 21.992V24.504L48.5001 24.6C48.5161 24.7493 48.5267 24.896 48.5321 25.04C48.5374 25.184 48.5374 25.336 48.5321 25.496V26.592H47.7641V21.096H48.3961ZM55.9411 21.096L54.4051 25.184C54.3411 25.36 54.2584 25.5333 54.1571 25.704C54.0611 25.8747 53.9411 26.0293 53.7971 26.168C53.6531 26.312 53.4824 26.4267 53.2851 26.512C53.0931 26.5973 52.8691 26.64 52.6131 26.64L52.5411 26.152C52.8611 26.0507 53.1064 25.9173 53.2771 25.752C53.4531 25.5867 53.5917 25.384 53.6931 25.144L53.8931 24.664C53.9357 24.552 53.9784 24.4293 54.0211 24.296C54.0637 24.1573 54.1037 24.0373 54.1411 23.936L55.1091 21.096H55.9411ZM52.7411 21.096L53.7251 23.936C53.7517 24.016 53.7757 24.0987 53.7971 24.184C53.8237 24.264 53.8451 24.3467 53.8611 24.432H54.0531L53.8051 25H53.5811C53.5171 25 53.4611 24.984 53.4131 24.952C53.3651 24.9147 53.3304 24.864 53.3091 24.8L51.9171 21.096H52.7411ZM57.2781 21.096L57.3741 21.848L57.4461 21.96V25H56.6781V21.096H57.2781ZM59.1901 21L59.1101 21.72H58.8621C58.6435 21.72 58.4195 21.7627 58.1901 21.848C57.9661 21.9333 57.6915 22.056 57.3661 22.216L57.3101 21.744C57.5928 21.5093 57.8781 21.328 58.1661 21.2C58.4595 21.0667 58.7421 21 59.0141 21H59.1901ZM60.7201 21.096V25H59.9601V21.096H60.7201ZM60.5201 19.424C60.6748 19.424 60.7521 19.5013 60.7521 19.656V20.112C60.7521 20.2667 60.6748 20.344 60.5201 20.344H60.1601C60.0055 20.344 59.9281 20.2667 59.9281 20.112V19.656C59.9281 19.5013 60.0055 19.424 60.1601 19.424H60.5201ZM63.5356 21C63.9569 21 64.2902 21.0427 64.5356 21.128C64.7862 21.208 64.9649 21.3413 65.0716 21.528C65.1782 21.7093 65.2316 21.9467 65.2316 22.24C65.2316 22.5227 65.1782 22.7573 65.0716 22.944C64.9649 23.1253 64.7862 23.2613 64.5356 23.352C64.2849 23.4373 63.9489 23.48 63.5276 23.48C63.1009 23.48 62.7622 23.4373 62.5116 23.352C62.2662 23.2613 62.0902 23.1253 61.9836 22.944C61.8769 22.7627 61.8236 22.5307 61.8236 22.248C61.8236 21.9493 61.8769 21.7093 61.9836 21.528C62.0902 21.3413 62.2689 21.208 62.5196 21.128C62.7702 21.0427 63.1089 21 63.5356 21ZM63.5276 21.552C63.1542 21.552 62.8956 21.6053 62.7516 21.712C62.6076 21.8133 62.5356 21.9893 62.5356 22.24C62.5356 22.4853 62.6076 22.6613 62.7516 22.768C62.8956 22.8747 63.1542 22.928 63.5276 22.928C63.9009 22.928 64.1569 22.8747 64.2956 22.768C64.4396 22.6613 64.5116 22.4853 64.5116 22.24C64.5116 21.9893 64.4396 21.8133 64.2956 21.712C64.1569 21.6053 63.9009 21.552 63.5276 21.552ZM65.6876 21.096L65.6476 21.496L64.6396 21.584L64.3596 21.096H65.6876ZM62.4156 23.232L62.8396 23.288C62.7542 23.3627 62.6956 23.456 62.6636 23.568C62.6316 23.68 62.6396 23.7813 62.6876 23.872C62.7356 23.9627 62.8422 24.0213 63.0076 24.048L64.4636 24.272C64.8369 24.32 65.0982 24.4347 65.2476 24.616C65.3969 24.792 65.4716 25.0453 65.4716 25.376C65.4716 25.6907 65.4102 25.936 65.2876 26.112C65.1702 26.288 64.9729 26.4133 64.6956 26.488C64.4182 26.5627 64.0449 26.6 63.5756 26.6C63.2076 26.6 62.9009 26.5787 62.6556 26.536C62.4102 26.4987 62.2129 26.432 62.0636 26.336C61.9196 26.2453 61.8156 26.1253 61.7516 25.976C61.6876 25.8267 61.6556 25.6427 61.6556 25.424C61.6556 25.2533 61.6796 25.1093 61.7276 24.992C61.7809 24.8747 61.8662 24.7707 61.9836 24.68C62.1009 24.5893 62.2529 24.5013 62.4396 24.416L62.9436 24.168L63.2796 24.288L62.8956 24.568C62.7836 24.648 62.6902 24.728 62.6156 24.808C62.5462 24.8827 62.4929 24.96 62.4556 25.04C62.4182 25.1253 62.3996 25.2267 62.3996 25.344C62.3996 25.5147 62.4316 25.6453 62.4956 25.736C62.5649 25.8267 62.6849 25.888 62.8556 25.92C63.0262 25.952 63.2636 25.968 63.5676 25.968C63.8716 25.968 64.1062 25.9493 64.2716 25.912C64.4369 25.88 64.5516 25.8187 64.6156 25.728C64.6849 25.6427 64.7196 25.5173 64.7196 25.352C64.7196 25.224 64.7009 25.1253 64.6636 25.056C64.6316 24.992 64.5676 24.944 64.4716 24.912C64.3756 24.8747 64.2369 24.8427 64.0556 24.816L62.6876 24.64C62.5116 24.6187 62.3729 24.5653 62.2716 24.48C62.1702 24.3893 62.0982 24.2853 62.0556 24.168C62.0182 24.0453 62.0076 23.9253 62.0236 23.808C62.0449 23.6853 62.0876 23.5707 62.1516 23.464C62.2209 23.3573 62.3089 23.28 62.4156 23.232ZM68.8838 21C69.5931 21 69.9478 21.3573 69.9478 22.072V25H69.1638V22.296C69.1638 22.0507 69.1238 21.8827 69.0438 21.792C68.9691 21.696 68.8358 21.648 68.6438 21.648C68.4144 21.648 68.1851 21.7013 67.9557 21.808C67.7264 21.9093 67.4518 22.0613 67.1318 22.264L67.0918 21.752C67.3904 21.5173 67.6891 21.3333 67.9878 21.2C68.2918 21.0667 68.5904 21 68.8838 21ZM67.2118 19.4L67.2198 20.912C67.2198 21.0933 67.2118 21.264 67.1958 21.424C67.1851 21.584 67.1638 21.7253 67.1318 21.848L67.2118 21.96V25H66.4438V19.4H67.2118ZM72.2034 19.952V23.888C72.2034 24.0693 72.2408 24.2 72.3154 24.28C72.3954 24.3547 72.5288 24.392 72.7154 24.392H73.2914L73.3794 24.96C73.2888 24.9867 73.1848 25.008 73.0674 25.024C72.9554 25.04 72.8408 25.0507 72.7234 25.056C72.6114 25.0667 72.5208 25.072 72.4514 25.072C72.1208 25.072 71.8674 24.9813 71.6914 24.8C71.5154 24.6187 71.4274 24.3573 71.4274 24.016V19.952H72.2034ZM73.4194 21.096V21.672H70.7234V21.136L71.4914 21.096H73.4194ZM78.7108 19.376C79.1108 19.376 79.4841 19.448 79.8308 19.592C80.1775 19.7307 80.4815 19.928 80.7428 20.184C81.0095 20.44 81.2148 20.744 81.3588 21.096C81.5081 21.4427 81.5828 21.824 81.5828 22.24C81.5828 22.656 81.5081 23.04 81.3588 23.392C81.2148 23.7387 81.0095 24.04 80.7428 24.296C80.4815 24.552 80.1775 24.752 79.8308 24.896C79.4841 25.0347 79.1108 25.104 78.7108 25.104C78.3055 25.104 77.9295 25.0347 77.5828 24.896C77.2361 24.752 76.9321 24.552 76.6708 24.296C76.4095 24.04 76.2041 23.7387 76.0548 23.392C75.9055 23.04 75.8308 22.656 75.8308 22.24C75.8308 21.824 75.9055 21.4427 76.0548 21.096C76.2041 20.744 76.4095 20.44 76.6708 20.184C76.9321 19.928 77.2361 19.7307 77.5828 19.592C77.9295 19.448 78.3055 19.376 78.7108 19.376ZM78.7428 20.48C78.9988 20.48 79.2041 20.488 79.3588 20.504C79.5135 20.52 79.6708 20.5493 79.8308 20.592L79.7588 21.016C79.5881 21.0107 79.4308 21.008 79.2868 21.008C79.1481 21.0027 78.9641 21 78.7348 21C78.4948 21 78.3055 21.0373 78.1668 21.112C78.0281 21.1867 77.9295 21.312 77.8708 21.488C77.8175 21.664 77.7908 21.9093 77.7908 22.224C77.7908 22.5333 77.8175 22.7787 77.8708 22.96C77.9295 23.136 78.0281 23.2613 78.1668 23.336C78.3055 23.4107 78.4948 23.448 78.7348 23.448C78.9855 23.448 79.1935 23.448 79.3588 23.448C79.5241 23.4427 79.6895 23.4293 79.8548 23.408L79.9108 23.84C79.7401 23.8827 79.5668 23.9147 79.3908 23.936C79.2201 23.9573 79.0041 23.968 78.7428 23.968C78.3641 23.968 78.0601 23.912 77.8308 23.8C77.6015 23.6827 77.4361 23.4987 77.3348 23.248C77.2335 22.992 77.1828 22.6507 77.1828 22.224C77.1828 21.7973 77.2335 21.456 77.3348 21.2C77.4361 20.944 77.6015 20.76 77.8308 20.648C78.0601 20.536 78.3641 20.48 78.7428 20.48ZM78.7028 19.784C78.3668 19.784 78.0495 19.8453 77.7508 19.968C77.4575 20.0853 77.1961 20.256 76.9668 20.48C76.7428 20.704 76.5668 20.9653 76.4388 21.264C76.3108 21.5573 76.2468 21.8827 76.2468 22.24C76.2468 22.592 76.3108 22.9173 76.4388 23.216C76.5668 23.5147 76.7428 23.776 76.9668 24C77.1961 24.224 77.4575 24.3973 77.7508 24.52C78.0495 24.6373 78.3668 24.696 78.7028 24.696C79.0441 24.696 79.3641 24.6373 79.6628 24.52C79.9615 24.3973 80.2228 24.224 80.4468 24C80.6708 23.776 80.8468 23.5147 80.9748 23.216C81.1028 22.9173 81.1668 22.592 81.1668 22.24C81.1668 21.8827 81.1028 21.5573 80.9748 21.264C80.8468 20.9653 80.6708 20.704 80.4468 20.48C80.2228 20.256 79.9615 20.0853 79.6628 19.968C79.3641 19.8453 79.0441 19.784 78.7028 19.784ZM85.9887 19.384C86.346 19.384 86.6527 19.416 86.9087 19.48C87.17 19.5387 87.37 19.656 87.5087 19.832C87.6474 20.0027 87.7167 20.256 87.7167 20.592C87.7167 20.816 87.6874 21.0293 87.6287 21.232C87.57 21.4293 87.4687 21.6347 87.3247 21.848C87.186 22.056 86.994 22.296 86.7487 22.568L85.1887 24.28C85.3274 24.2693 85.474 24.2613 85.6287 24.256C85.7834 24.2507 85.9327 24.248 86.0767 24.248H87.9167V25H84.2287V24.52C84.2287 24.456 84.2367 24.3947 84.2527 24.336C84.274 24.2773 84.306 24.224 84.3487 24.176L85.9007 22.432C86.2474 22.064 86.5034 21.736 86.6687 21.448C86.8394 21.16 86.9194 20.8907 86.9087 20.64C86.9034 20.4747 86.8607 20.3547 86.7807 20.28C86.706 20.2 86.5967 20.1467 86.4527 20.12C86.3087 20.0933 86.1327 20.08 85.9247 20.08C85.754 20.08 85.5887 20.0827 85.4287 20.088C85.274 20.0933 85.1087 20.1067 84.9327 20.128C84.762 20.144 84.5594 20.168 84.3247 20.2L84.2767 19.592C84.5274 19.5333 84.7487 19.4907 84.9407 19.464C85.138 19.432 85.3194 19.4107 85.4847 19.4C85.6554 19.3893 85.8234 19.384 85.9887 19.384ZM90.7679 19.376C91.2533 19.376 91.6373 19.4747 91.9199 19.672C92.2026 19.864 92.4053 20.1707 92.5279 20.592C92.6506 21.0133 92.7119 21.5627 92.7119 22.24C92.7119 22.9173 92.6506 23.4667 92.5279 23.888C92.4053 24.3093 92.2026 24.6187 91.9199 24.816C91.6373 25.008 91.2533 25.104 90.7679 25.104C90.2879 25.104 89.9039 25.008 89.6159 24.816C89.3333 24.6187 89.1306 24.3093 89.0079 23.888C88.8853 23.4667 88.8239 22.9173 88.8239 22.24C88.8239 21.5627 88.8853 21.0133 89.0079 20.592C89.1306 20.1707 89.3333 19.864 89.6159 19.672C89.9039 19.4747 90.2879 19.376 90.7679 19.376ZM90.7599 20.056C90.5413 20.056 90.3573 20.096 90.2079 20.176C90.0639 20.2507 89.9466 20.3733 89.8559 20.544C89.7706 20.7147 89.7066 20.9387 89.6639 21.216C89.6266 21.4933 89.6079 21.8347 89.6079 22.24C89.6079 22.64 89.6266 22.9813 89.6639 23.264C89.7066 23.5413 89.7706 23.7653 89.8559 23.936C89.9466 24.1067 90.0639 24.232 90.2079 24.312C90.3573 24.3867 90.5413 24.424 90.7599 24.424C90.9839 24.424 91.1706 24.3867 91.3199 24.312C91.4693 24.232 91.5893 24.1067 91.6799 23.936C91.7706 23.7653 91.8346 23.5413 91.8719 23.264C91.9093 22.9813 91.9279 22.64 91.9279 22.24C91.9279 21.8347 91.9093 21.4933 91.8719 21.216C91.8346 20.9387 91.7706 20.7147 91.6799 20.544C91.5893 20.3733 91.4693 20.2507 91.3199 20.176C91.1706 20.096 90.9839 20.056 90.7599 20.056ZM95.3871 19.384C95.7445 19.384 96.0511 19.416 96.3071 19.48C96.5685 19.5387 96.7685 19.656 96.9071 19.832C97.0458 20.0027 97.1151 20.256 97.1151 20.592C97.1151 20.816 97.0858 21.0293 97.0271 21.232C96.9685 21.4293 96.8671 21.6347 96.7231 21.848C96.5845 22.056 96.3925 22.296 96.1471 22.568L94.5871 24.28C94.7258 24.2693 94.8725 24.2613 95.0271 24.256C95.1818 24.2507 95.3311 24.248 95.4751 24.248H97.3151V25H93.6271V24.52C93.6271 24.456 93.6351 24.3947 93.6511 24.336C93.6725 24.2773 93.7045 24.224 93.7471 24.176L95.2991 22.432C95.6458 22.064 95.9018 21.736 96.0671 21.448C96.2378 21.16 96.3178 20.8907 96.3071 20.64C96.3018 20.4747 96.2591 20.3547 96.1791 20.28C96.1045 20.2 95.9951 20.1467 95.8511 20.12C95.7071 20.0933 95.5311 20.08 95.3231 20.08C95.1525 20.08 94.9871 20.0827 94.8271 20.088C94.6725 20.0933 94.5071 20.1067 94.3311 20.128C94.1605 20.144 93.9578 20.168 93.7231 20.2L93.6751 19.592C93.9258 19.5333 94.1471 19.4907 94.3391 19.464C94.5365 19.432 94.7178 19.4107 94.8831 19.4C95.0538 19.3893 95.2218 19.384 95.3871 19.384ZM100.102 19.48V25H99.3024V20.712C99.3024 20.6267 99.305 20.544 99.3104 20.464C99.3157 20.3787 99.3264 20.2933 99.3424 20.208L97.9984 20.616L97.8944 20.048L99.3024 19.48H100.102ZM104.998 19.384C105.265 19.3893 105.54 19.4027 105.822 19.424C106.11 19.4453 106.396 19.488 106.678 19.552L106.622 20.12C106.393 20.1093 106.134 20.1013 105.846 20.096C105.564 20.0907 105.289 20.088 105.022 20.088C104.836 20.088 104.676 20.0933 104.542 20.104C104.409 20.1147 104.3 20.144 104.214 20.192C104.129 20.24 104.065 20.3173 104.022 20.424C103.985 20.5307 103.966 20.6773 103.966 20.864C103.966 21.1467 104.02 21.3467 104.126 21.464C104.233 21.576 104.406 21.6613 104.646 21.72L105.758 22.016C106.185 22.1227 106.478 22.304 106.638 22.56C106.798 22.8107 106.878 23.1493 106.878 23.576C106.878 23.896 106.841 24.1547 106.766 24.352C106.697 24.5493 106.585 24.7013 106.43 24.808C106.281 24.9147 106.086 24.9893 105.846 25.032C105.606 25.0747 105.321 25.096 104.99 25.096C104.809 25.096 104.569 25.088 104.27 25.072C103.972 25.056 103.628 25.0107 103.238 24.936L103.294 24.352C103.609 24.3627 103.865 24.3733 104.062 24.384C104.265 24.3893 104.438 24.392 104.582 24.392C104.726 24.392 104.87 24.392 105.014 24.392C105.281 24.392 105.492 24.3733 105.646 24.336C105.801 24.2933 105.91 24.2133 105.974 24.096C106.038 23.9733 106.07 23.7973 106.07 23.568C106.07 23.3707 106.046 23.216 105.998 23.104C105.956 22.992 105.884 22.9093 105.782 22.856C105.686 22.7973 105.561 22.7493 105.406 22.712L104.262 22.4C103.862 22.288 103.58 22.1067 103.414 21.856C103.249 21.6053 103.166 21.272 103.166 20.856C103.166 20.536 103.201 20.2773 103.27 20.08C103.345 19.8827 103.457 19.736 103.606 19.64C103.756 19.5387 103.945 19.472 104.174 19.44C104.404 19.4027 104.678 19.384 104.998 19.384ZM112.665 21C113.007 21 113.265 21.0907 113.441 21.272C113.623 21.4533 113.713 21.72 113.713 22.072V25H112.945V22.296C112.945 22.072 112.9 21.9093 112.809 21.808C112.724 21.7013 112.577 21.648 112.369 21.648C112.241 21.648 112.119 21.6693 112.001 21.712C111.884 21.7547 111.753 21.8213 111.609 21.912C111.465 21.9973 111.292 22.1147 111.089 22.264L111.049 21.744C111.327 21.4933 111.596 21.3067 111.857 21.184C112.119 21.0613 112.388 21 112.665 21ZM108.505 21.096L108.561 21.848L108.641 21.96V25H107.873V21.096H108.505ZM110.129 21C110.465 21 110.721 21.0907 110.897 21.272C111.073 21.448 111.164 21.7147 111.169 22.072V25H110.425V22.296C110.425 22.0613 110.377 21.896 110.281 21.8C110.185 21.6987 110.041 21.648 109.849 21.648C109.721 21.648 109.599 21.6693 109.481 21.712C109.364 21.7493 109.231 21.8133 109.081 21.904C108.937 21.9893 108.761 22.1093 108.553 22.264L108.505 21.744C108.783 21.4933 109.052 21.3067 109.313 21.184C109.575 21.0613 109.847 21 110.129 21ZM116.769 21C117.068 21 117.318 21.04 117.521 21.12C117.729 21.1947 117.884 21.3253 117.985 21.512C118.092 21.6987 118.145 21.9547 118.145 22.28V25H117.537L117.417 24.152L117.369 24.056V22.28C117.369 22.0507 117.316 21.8853 117.209 21.784C117.102 21.6827 116.9 21.632 116.601 21.632C116.398 21.632 116.142 21.6427 115.833 21.664C115.529 21.6853 115.228 21.7067 114.929 21.728L114.857 21.176C115.038 21.144 115.238 21.1147 115.457 21.088C115.681 21.0613 115.908 21.04 116.137 21.024C116.366 21.008 116.577 21 116.769 21ZM117.793 22.592L117.785 23.136L115.945 23.144C115.764 23.1493 115.636 23.1973 115.561 23.288C115.492 23.3733 115.457 23.4933 115.457 23.648V23.888C115.457 24.08 115.502 24.2213 115.593 24.312C115.689 24.3973 115.838 24.44 116.041 24.44C116.19 24.44 116.356 24.4133 116.537 24.36C116.724 24.3013 116.91 24.216 117.097 24.104C117.284 23.9867 117.452 23.84 117.601 23.664V24.168C117.548 24.2427 117.468 24.3333 117.361 24.44C117.254 24.5413 117.124 24.64 116.969 24.736C116.82 24.832 116.652 24.912 116.465 24.976C116.284 25.04 116.084 25.072 115.865 25.072C115.63 25.072 115.422 25.032 115.241 24.952C115.065 24.8667 114.926 24.744 114.825 24.584C114.724 24.4187 114.673 24.2187 114.673 23.984V23.56C114.673 23.256 114.769 23.0187 114.961 22.848C115.158 22.6773 115.43 22.592 115.777 22.592H117.793ZM119.911 21.096L120.007 21.848L120.079 21.96V25H119.311V21.096H119.911ZM121.823 21L121.743 21.72H121.495C121.276 21.72 121.052 21.7627 120.823 21.848C120.599 21.9333 120.324 22.056 119.999 22.216L119.943 21.744C120.226 21.5093 120.511 21.328 120.799 21.2C121.092 21.0667 121.375 21 121.647 21H121.823ZM123.641 19.952V23.888C123.641 24.0693 123.678 24.2 123.753 24.28C123.833 24.3547 123.966 24.392 124.153 24.392H124.729L124.817 24.96C124.726 24.9867 124.622 25.008 124.505 25.024C124.393 25.04 124.278 25.0507 124.161 25.056C124.049 25.0667 123.958 25.072 123.889 25.072C123.558 25.072 123.305 24.9813 123.129 24.8C122.953 24.6187 122.865 24.3573 122.865 24.016V19.952H123.641ZM124.857 21.096V21.672H122.161V21.136L122.929 21.096H124.857ZM134.111 19.48L133.031 24.768C133.015 24.832 132.98 24.888 132.927 24.936C132.873 24.9787 132.807 25 132.727 25H131.863C131.783 25 131.713 24.9787 131.655 24.936C131.601 24.888 131.569 24.8293 131.559 24.76L130.743 20.712C130.721 20.6053 130.7 20.4987 130.679 20.392C130.657 20.28 130.636 20.1733 130.615 20.072H130.455C130.433 20.1733 130.412 20.28 130.391 20.392C130.375 20.504 130.356 20.6107 130.335 20.712L129.527 24.76C129.511 24.8293 129.473 24.888 129.415 24.936C129.361 24.9787 129.297 25 129.223 25H128.351C128.271 25 128.201 24.9787 128.143 24.936C128.089 24.888 128.057 24.832 128.047 24.768L126.967 19.48H127.799L128.607 23.696C128.628 23.8027 128.647 23.9147 128.663 24.032C128.679 24.1493 128.697 24.272 128.719 24.4H128.895C128.916 24.2773 128.937 24.1573 128.959 24.04C128.98 23.9227 129.001 23.808 129.023 23.696L129.831 19.736C129.841 19.6613 129.873 19.6 129.927 19.552C129.985 19.504 130.055 19.48 130.135 19.48H130.943C131.023 19.48 131.089 19.504 131.143 19.552C131.196 19.6 131.231 19.6613 131.247 19.736L132.055 23.696C132.081 23.8187 132.103 23.9387 132.119 24.056C132.14 24.168 132.156 24.2827 132.167 24.4H132.367C132.377 24.2827 132.391 24.1653 132.407 24.048C132.423 23.9307 132.441 23.816 132.463 23.704L133.279 19.48H134.111ZM136.738 21C137.036 21 137.287 21.04 137.49 21.12C137.698 21.1947 137.852 21.3253 137.954 21.512C138.06 21.6987 138.114 21.9547 138.114 22.28V25H137.506L137.386 24.152L137.338 24.056V22.28C137.338 22.0507 137.284 21.8853 137.178 21.784C137.071 21.6827 136.868 21.632 136.57 21.632C136.367 21.632 136.111 21.6427 135.802 21.664C135.498 21.6853 135.196 21.7067 134.898 21.728L134.826 21.176C135.007 21.144 135.207 21.1147 135.426 21.088C135.65 21.0613 135.876 21.04 136.106 21.024C136.335 21.008 136.546 21 136.738 21ZM137.762 22.592L137.754 23.136L135.914 23.144C135.732 23.1493 135.604 23.1973 135.53 23.288C135.46 23.3733 135.426 23.4933 135.426 23.648V23.888C135.426 24.08 135.471 24.2213 135.562 24.312C135.658 24.3973 135.807 24.44 136.01 24.44C136.159 24.44 136.324 24.4133 136.506 24.36C136.692 24.3013 136.879 24.216 137.066 24.104C137.252 23.9867 137.42 23.84 137.57 23.664V24.168C137.516 24.2427 137.436 24.3333 137.33 24.44C137.223 24.5413 137.092 24.64 136.938 24.736C136.788 24.832 136.62 24.912 136.434 24.976C136.252 25.04 136.052 25.072 135.834 25.072C135.599 25.072 135.391 25.032 135.21 24.952C135.034 24.8667 134.895 24.744 134.794 24.584C134.692 24.4187 134.642 24.2187 134.642 23.984V23.56C134.642 23.256 134.738 23.0187 134.93 22.848C135.127 22.6773 135.399 22.592 135.746 22.592H137.762ZM140.056 19.4L140.048 23.888C140.048 24.0533 140.093 24.1787 140.184 24.264C140.28 24.3493 140.41 24.392 140.576 24.392H140.944L141.032 24.96C140.978 24.9867 140.904 25.008 140.808 25.024C140.717 25.04 140.621 25.0507 140.52 25.056C140.424 25.0667 140.341 25.072 140.272 25.072C139.973 25.072 139.733 24.9867 139.552 24.816C139.376 24.6453 139.288 24.3973 139.288 24.072V19.4H140.056ZM142.478 19.4L142.47 23.888C142.47 24.0533 142.515 24.1787 142.606 24.264C142.702 24.3493 142.832 24.392 142.998 24.392H143.366L143.454 24.96C143.4 24.9867 143.326 25.008 143.23 25.024C143.139 25.04 143.043 25.0507 142.942 25.056C142.846 25.0667 142.763 25.072 142.694 25.072C142.395 25.072 142.155 24.9867 141.974 24.816C141.798 24.6453 141.71 24.3973 141.71 24.072V19.4H142.478ZM145.771 21C146.374 21 146.809 21.1093 147.075 21.328C147.347 21.5413 147.483 21.8587 147.483 22.28C147.489 22.632 147.411 22.904 147.251 23.096C147.097 23.288 146.843 23.384 146.491 23.384H144.235V22.832H146.291C146.467 22.832 146.582 22.776 146.635 22.664C146.689 22.552 146.715 22.424 146.715 22.28C146.71 22.04 146.638 21.8693 146.499 21.768C146.366 21.6667 146.134 21.616 145.803 21.616C145.531 21.616 145.318 21.656 145.163 21.736C145.009 21.816 144.899 21.9547 144.835 22.152C144.777 22.3493 144.747 22.6267 144.747 22.984C144.747 23.384 144.785 23.6907 144.859 23.904C144.939 24.112 145.065 24.256 145.235 24.336C145.411 24.416 145.643 24.456 145.931 24.456C146.134 24.456 146.361 24.448 146.611 24.432C146.867 24.4107 147.099 24.3867 147.307 24.36L147.387 24.864C147.259 24.9173 147.105 24.9627 146.923 25C146.742 25.032 146.555 25.056 146.363 25.072C146.171 25.088 145.995 25.096 145.835 25.096C145.377 25.096 145.009 25.0267 144.731 24.888C144.454 24.7493 144.251 24.5307 144.123 24.232C143.995 23.928 143.931 23.5307 143.931 23.04C143.931 22.528 143.995 22.1227 144.123 21.824C144.251 21.5253 144.451 21.3147 144.723 21.192C144.995 21.064 145.345 21 145.771 21ZM149.539 19.952V23.888C149.539 24.0693 149.577 24.2 149.651 24.28C149.731 24.3547 149.865 24.392 150.051 24.392H150.627L150.715 24.96C150.625 24.9867 150.521 25.008 150.403 25.024C150.291 25.04 150.177 25.0507 150.059 25.056C149.947 25.0667 149.857 25.072 149.787 25.072C149.457 25.072 149.203 24.9813 149.027 24.8C148.851 24.6187 148.763 24.3573 148.763 24.016V19.952H149.539ZM150.755 21.096V21.672H148.059V21.136L148.827 21.096H150.755ZM155.267 19.48V25H154.467V19.48H155.267ZM157.027 19.48V20.168H152.715V19.48H157.027ZM158.616 21C159.075 21 159.44 21.0667 159.712 21.2C159.989 21.3333 160.187 21.552 160.304 21.856C160.427 22.1547 160.488 22.552 160.488 23.048C160.488 23.5493 160.427 23.952 160.304 24.256C160.187 24.5547 159.989 24.7707 159.712 24.904C159.44 25.0373 159.075 25.104 158.616 25.104C158.163 25.104 157.797 25.0373 157.52 24.904C157.248 24.7707 157.051 24.5547 156.928 24.256C156.805 23.952 156.744 23.5493 156.744 23.048C156.744 22.552 156.805 22.1547 156.928 21.856C157.051 21.552 157.248 21.3333 157.52 21.2C157.797 21.0667 158.163 21 158.616 21ZM158.616 21.624C158.349 21.624 158.139 21.6667 157.984 21.752C157.829 21.8373 157.72 21.984 157.656 22.192C157.592 22.3947 157.56 22.68 157.56 23.048C157.56 23.416 157.592 23.704 157.656 23.912C157.72 24.12 157.829 24.2667 157.984 24.352C158.139 24.432 158.349 24.472 158.616 24.472C158.883 24.472 159.093 24.432 159.248 24.352C159.408 24.2667 159.52 24.12 159.584 23.912C159.648 23.704 159.68 23.416 159.68 23.048C159.68 22.68 159.648 22.3947 159.584 22.192C159.52 21.984 159.408 21.8373 159.248 21.752C159.093 21.6667 158.883 21.624 158.616 21.624ZM164.81 21.096L163.618 22.512C163.581 22.5653 163.533 22.6213 163.474 22.68C163.416 22.7333 163.368 22.7733 163.33 22.8V22.816C163.368 22.8427 163.416 22.8907 163.474 22.96C163.533 23.024 163.581 23.088 163.618 23.152L164.938 25H164.042L162.538 22.768L163.914 21.096H164.81ZM162.274 19.4L162.282 21.856C162.282 22.0267 162.274 22.1867 162.258 22.336C162.248 22.48 162.226 22.632 162.194 22.792C162.226 22.9413 162.248 23.0933 162.258 23.248C162.269 23.4027 162.274 23.5493 162.274 23.688V25H161.506V19.4H162.274ZM162.922 22.528V23.072H162.01V22.528H162.922ZM167.17 21C167.773 21 168.207 21.1093 168.474 21.328C168.746 21.5413 168.882 21.8587 168.882 22.28C168.887 22.632 168.81 22.904 168.65 23.096C168.495 23.288 168.242 23.384 167.89 23.384H165.634V22.832H167.69C167.866 22.832 167.981 22.776 168.034 22.664C168.087 22.552 168.114 22.424 168.114 22.28C168.109 22.04 168.037 21.8693 167.898 21.768C167.765 21.6667 167.533 21.616 167.202 21.616C166.93 21.616 166.717 21.656 166.562 21.736C166.407 21.816 166.298 21.9547 166.234 22.152C166.175 22.3493 166.146 22.6267 166.146 22.984C166.146 23.384 166.183 23.6907 166.258 23.904C166.338 24.112 166.463 24.256 166.634 24.336C166.81 24.416 167.042 24.456 167.33 24.456C167.533 24.456 167.759 24.448 168.01 24.432C168.266 24.4107 168.498 24.3867 168.706 24.36L168.786 24.864C168.658 24.9173 168.503 24.9627 168.322 25C168.141 25.032 167.954 25.056 167.762 25.072C167.57 25.088 167.394 25.096 167.234 25.096C166.775 25.096 166.407 25.0267 166.13 24.888C165.853 24.7493 165.65 24.5307 165.522 24.232C165.394 23.928 165.33 23.5307 165.33 23.04C165.33 22.528 165.394 22.1227 165.522 21.824C165.65 21.5253 165.85 21.3147 166.122 21.192C166.394 21.064 166.743 21 167.17 21ZM172.298 21C173.007 21 173.362 21.3573 173.362 22.072V25H172.586V22.296C172.586 22.0507 172.546 21.8827 172.466 21.792C172.386 21.696 172.25 21.648 172.058 21.648C171.828 21.648 171.599 21.704 171.37 21.816C171.14 21.9227 170.866 22.072 170.546 22.264L170.514 21.744C170.812 21.504 171.111 21.32 171.41 21.192C171.708 21.064 172.004 21 172.298 21ZM170.498 21.096L170.57 21.848L170.626 21.96V25H169.858V21.096H170.498Z" fill="#9A9AAB"/>
</svg>
