<svg width="32" height="32" viewBox="0 0 32 32" fill="none" xmlns="http://www.w3.org/2000/svg">
<rect x="1" y="1" width="30" height="30" rx="11" fill="white"/>
<path d="M19.1822 23.1253C19.05 23.1638 18.944 23.2519 18.8281 23.3201C17.8763 23.8783 16.9256 24.4375 15.9684 25C15.5028 24.7281 15.0406 24.4573 14.5773 24.1865C14.0134 23.8574 13.4484 23.5282 12.8846 23.2002C12.8518 23.1814 12.8146 23.1671 12.7808 23.1506C12.6638 23.0603 12.5382 22.9844 12.4027 22.9249C12.1874 22.7686 11.9513 22.6453 11.7241 22.5099C11.1176 22.1488 10.5089 21.79 9.90132 21.43C9.86416 21.4025 9.82701 21.3749 9.77783 21.3386C9.77783 21.245 9.77783 21.1471 9.77783 21.048C9.78002 20.9852 9.78439 20.9225 9.78439 20.8586C9.78439 19.8381 9.78439 18.8177 9.78439 17.7972C9.8281 17.763 9.87072 17.7322 9.91224 17.7003C10.0565 17.6265 10.2018 17.5561 10.333 17.4592C11.1045 17.009 11.877 16.5598 12.6485 16.1085C12.6562 16.1041 12.6584 16.0919 12.666 16.0787C12.6704 16.0171 12.6737 15.9499 12.6791 15.874C11.9033 15.4226 11.1318 14.9735 10.3592 14.5243C10.2095 14.4374 10.0598 14.3504 9.91115 14.2634C9.86853 14.2326 9.82701 14.2007 9.78876 14.1732C9.78876 12.9919 9.78876 11.8162 9.78876 10.6405C9.8281 10.6086 9.86635 10.5789 9.9035 10.5491C10.0477 10.4578 10.192 10.3675 10.3362 10.2761C10.7996 10.0064 11.2651 9.74003 11.7262 9.46702C11.9623 9.32721 12.2092 9.20391 12.4311 9.03988C12.572 8.99035 12.6912 8.90227 12.8124 8.81751C13.7719 8.26158 14.7303 7.70565 15.6897 7.15082C15.7728 7.10238 15.8569 7.05394 15.9487 7C16.2033 7.14641 16.4579 7.29393 16.7125 7.44144C17.4917 7.89389 18.2697 8.34635 19.0489 8.7988C19.074 8.81311 19.1013 8.82302 19.1276 8.83513C19.2521 8.9353 19.4029 8.98484 19.5395 9.063C19.6761 9.14446 19.8116 9.22703 19.9493 9.30629C20.5099 9.62884 21.0705 9.94918 21.6311 10.2706C21.7633 10.3664 21.9108 10.4336 22.0594 10.5007C22.1206 10.5315 22.125 10.5855 22.125 10.6471C22.1239 11.7843 22.1239 12.9215 22.1261 14.0587C22.1261 14.1247 22.1075 14.1699 22.0562 14.2051C21.9152 14.2943 21.7742 14.3834 21.6333 14.4726C20.8399 14.9349 20.0466 15.3984 19.2598 15.8564C19.251 15.9521 19.2445 16.0292 19.2379 16.1085C20.04 16.5752 20.8345 17.0387 21.6289 17.501C21.7688 17.5913 21.9108 17.6794 22.0627 17.7498C22.1392 17.7829 22.1228 17.8511 22.1228 17.9128C22.125 18.941 22.1261 19.9703 22.1283 20.9984C22.1272 21.0612 22.1272 21.1239 22.1228 21.1856C22.1174 21.2626 22.1523 21.3518 22.0649 21.408C21.7655 21.583 21.465 21.7547 21.1667 21.932C20.6279 22.2523 20.0914 22.5749 19.5548 22.8963C19.4259 22.9635 19.2915 23.0229 19.1822 23.1253ZM15.4515 17.7465C15.4373 17.7344 15.4253 17.719 15.4089 17.7091C14.6614 17.271 13.9129 16.8339 13.1654 16.3958C13.1436 16.3837 13.1239 16.3705 13.0977 16.3936C13.1075 17.4119 13.0845 18.4346 13.1119 19.4639C14.0702 20.0253 15.0198 20.5834 15.9662 21.1383C16.8535 20.6176 17.7277 20.1046 18.615 19.5839C17.99 19.2184 17.3857 18.8617 16.7781 18.5116C16.4645 18.3311 16.1629 18.1263 15.8329 17.9755C15.705 17.8985 15.5782 17.8225 15.4515 17.7465ZM15.7629 13.8253C15.8908 13.92 16.0263 14.0014 16.1705 14.0708C17.0524 14.5882 17.9342 15.1067 18.8303 15.6329C18.8303 14.5805 18.8303 13.5556 18.8303 12.5252C17.8643 11.9616 16.9005 11.399 15.9487 10.8431C15.0548 11.366 14.1861 11.8746 13.2976 12.3942C13.8211 12.7002 14.3205 12.9941 14.822 13.2848C15.1346 13.4653 15.4384 13.6635 15.7629 13.8253Z" fill="#FA0100"/>
<path d="M19.5384 9.06157C19.4018 8.98451 19.2499 8.93387 19.1265 8.83369C19.7002 8.50013 20.275 8.16767 20.8487 7.83411C21.1 7.6888 21.3557 7.54899 21.6016 7.39487C21.7742 7.28699 21.9272 7.2925 22.101 7.39818C22.9807 7.92879 23.8636 8.45389 24.7477 8.9768C24.9192 9.07808 25.0001 9.21238 25.0001 9.41604C24.9968 13.804 24.9968 18.192 25.0001 22.58C25.0001 22.8013 24.9138 22.9444 24.7247 23.0512C23.8724 23.5323 23.0244 24.0199 22.1884 24.5296C21.9666 24.665 21.7666 24.6639 21.5393 24.5274C20.7951 24.0816 20.0433 23.6501 19.2948 23.2119C19.2543 23.1877 19.203 23.1756 19.1833 23.1239C19.2915 23.0215 19.427 22.962 19.5559 22.8927C20.0728 23.1965 20.5897 23.5003 21.1077 23.8031C21.3612 23.9517 21.6158 24.0981 21.8671 24.2434C22.7129 23.7513 23.5478 23.2659 24.3991 22.7705C24.1423 22.6208 23.904 22.4821 23.6669 22.3422C23.1336 22.0296 22.5993 21.7159 22.066 21.4032C22.1534 21.3471 22.1185 21.2579 22.1239 21.1809C22.1283 21.1181 22.1272 21.0554 22.1294 20.9937C22.9446 21.4638 23.7598 21.9327 24.587 22.4094C24.587 18.0401 24.587 13.6984 24.587 9.34779C23.7511 8.8502 22.9173 8.35372 22.0595 7.84402C22.0595 8.75223 22.0595 9.6241 22.0595 10.496C21.9119 10.4288 21.7633 10.3617 21.6311 10.2659C21.6311 9.46668 21.6311 8.66856 21.6311 7.84182C21.3994 7.97502 21.1951 8.09171 20.9907 8.2106C20.5066 8.49572 20.0225 8.77865 19.5384 9.06157Z" fill="#C4B779"/>
<path d="M9.77669 21.0476C9.77669 21.1467 9.77669 21.2446 9.77669 21.3382C9.82587 21.3745 9.86302 21.4021 9.90017 21.4296C9.13527 21.8721 8.37142 22.3147 7.58135 22.7715C8.44355 23.2724 9.28279 23.7601 10.1165 24.2445C10.8858 23.7997 11.6442 23.3616 12.4015 22.9245C12.537 22.984 12.6627 23.06 12.7796 23.1502C12.4332 23.3814 12.0628 23.5718 11.7054 23.7843C11.2607 24.0496 10.8104 24.3072 10.3646 24.5725C10.1974 24.6716 10.0455 24.6716 9.87504 24.5725C8.97682 24.0452 8.07528 23.5245 7.17375 23.0027C7.106 22.9631 7.04371 22.919 7 22.8442C7 18.2778 7 13.706 7 9.12315C7.41307 8.87546 7.82832 8.62667 8.24357 8.37787C8.77138 8.06193 9.30137 7.75039 9.82477 7.42564C10.0291 7.29904 10.204 7.29023 10.416 7.41683C11.2104 7.8913 12.0125 8.35145 12.8124 8.81711C12.6911 8.90078 12.572 8.98995 12.431 9.03949C12.4048 9.02848 12.3753 9.02188 12.3513 9.00756C11.8781 8.73345 11.406 8.45934 10.9328 8.18522C10.7427 8.07514 10.5504 7.96616 10.3362 7.84396C10.3362 8.67511 10.3362 9.47542 10.3362 10.2768C10.1919 10.3682 10.0477 10.4585 9.90345 10.5499C9.90345 9.66037 9.90345 8.77198 9.90345 7.85717C9.05659 8.36136 8.23155 8.85455 7.40979 9.34443C7.40979 13.7005 7.40979 18.0467 7.40979 22.4115C7.81193 22.1782 8.1944 21.9525 8.58014 21.7323C8.97791 21.5034 9.36584 21.2545 9.77669 21.0476Z" fill="#C4B779"/>
<path d="M10.3592 14.5235C10.3242 14.5521 10.3297 14.5928 10.3297 14.6314C10.3308 15.5737 10.3318 16.516 10.3329 17.4583C10.2018 17.5552 10.0565 17.6257 9.91223 17.6994C9.91223 16.5546 9.91113 15.4086 9.91113 14.2637C10.0597 14.3495 10.2095 14.4365 10.3592 14.5235Z" fill="#C4B779"/>
<path d="M21.6289 17.4982C21.6595 17.4608 21.6529 17.4157 21.6529 17.3727C21.6529 16.4425 21.6529 15.5123 21.6529 14.581C21.6529 14.5424 21.6595 14.5028 21.6322 14.4687C21.7732 14.3795 21.9141 14.2903 22.0551 14.2012C22.0573 15.1446 22.0584 16.088 22.0606 17.0315C22.0606 17.2692 22.0616 17.5081 22.0627 17.7459C21.9108 17.6755 21.7688 17.5885 21.6289 17.4982Z" fill="#C4B779"/>
<path d="M15.7627 13.8249C15.7627 12.9684 15.7627 12.1109 15.7627 11.2577C15.8206 11.1928 15.8906 11.1608 15.955 11.1289C16.0392 11.1476 16.1025 11.1917 16.1769 11.2368C16.1769 11.2797 16.1769 11.3238 16.1769 11.3667C16.1769 12.2243 16.1769 13.0807 16.1769 13.9383C16.1769 13.9823 16.1725 14.0252 16.1703 14.0693C16.0261 14.001 15.8905 13.9196 15.7627 13.8249Z" fill="#C4B779"/>
<path d="M15.8319 17.974C15.2101 18.3373 14.5872 18.7016 13.9654 19.0649C13.7982 19.1629 13.631 19.2587 13.4616 19.3566C13.3917 19.3313 13.3327 19.2917 13.2759 19.2378C13.2759 19.1673 13.2759 19.0957 13.2759 19.0022C13.9949 18.5871 14.7227 18.1666 15.4505 17.7461C15.5783 17.8221 15.7051 17.898 15.8319 17.974Z" fill="#C4B779"/>
<rect x="1" y="1" width="30" height="30" rx="11" stroke="#F2F2F3" stroke-width="2"/>
</svg>
