<svg width="124" height="11" viewBox="0 0 124 11" fill="none" xmlns="http://www.w3.org/2000/svg">
<path d="M3.948 0.172C4.41467 0.181333 4.89533 0.204666 5.39 0.242C5.894 0.279333 6.39333 0.354 6.888 0.465999L6.79 1.46C6.38867 1.44133 5.936 1.42733 5.432 1.418C4.93733 1.40867 4.45667 1.404 3.99 1.404C3.66333 1.404 3.38333 1.41333 3.15 1.432C2.91667 1.45067 2.72533 1.502 2.576 1.586C2.42667 1.67 2.31467 1.80533 2.24 1.992C2.17467 2.17867 2.142 2.43533 2.142 2.762C2.142 3.25667 2.23533 3.60667 2.422 3.812C2.60867 4.008 2.912 4.15733 3.332 4.26L5.278 4.778C6.02467 4.96467 6.538 5.282 6.818 5.73C7.098 6.16867 7.238 6.76133 7.238 7.508C7.238 8.068 7.17267 8.52067 7.042 8.866C6.92067 9.21133 6.72467 9.47733 6.454 9.664C6.19267 9.85067 5.852 9.98133 5.432 10.056C5.012 10.1307 4.51267 10.168 3.934 10.168C3.61667 10.168 3.19667 10.154 2.674 10.126C2.15133 10.098 1.54933 10.0187 0.868 9.888L0.966 8.866C1.51667 8.88467 1.96467 8.90333 2.31 8.922C2.66467 8.93133 2.968 8.936 3.22 8.936C3.472 8.936 3.724 8.936 3.976 8.936C4.44267 8.936 4.81133 8.90333 5.082 8.838C5.35267 8.76333 5.544 8.62333 5.656 8.418C5.768 8.20333 5.824 7.89533 5.824 7.494C5.824 7.14867 5.782 6.878 5.698 6.682C5.62333 6.486 5.49733 6.34133 5.32 6.248C5.152 6.14533 4.93267 6.06133 4.662 5.996L2.66 5.45C1.96 5.254 1.46533 4.93667 1.176 4.498C0.886667 4.05933 0.742 3.476 0.742 2.748C0.742 2.188 0.802667 1.73533 0.924 1.39C1.05467 1.04467 1.25067 0.788 1.512 0.62C1.77333 0.442666 2.10467 0.326 2.506 0.269999C2.90733 0.204666 3.388 0.172 3.948 0.172ZM17.3657 3C17.963 3 18.4157 3.15867 18.7237 3.476C19.041 3.79333 19.1997 4.26 19.1997 4.876V10H17.8557V5.268C17.8557 4.876 17.7764 4.59133 17.6177 4.414C17.4684 4.22733 17.2117 4.134 16.8477 4.134C16.6237 4.134 16.409 4.17133 16.2037 4.246C15.9984 4.32067 15.7697 4.43733 15.5177 4.596C15.2657 4.74533 14.9624 4.95067 14.6077 5.212L14.5377 4.302C15.023 3.86333 15.4944 3.53667 15.9517 3.322C16.409 3.10733 16.8804 3 17.3657 3ZM10.0857 3.168L10.1837 4.484L10.3237 4.68V10H8.97969V3.168H10.0857ZM12.9277 3C13.5157 3 13.9637 3.15867 14.2717 3.476C14.5797 3.784 14.7384 4.25067 14.7477 4.876V10H13.4457V5.268C13.4457 4.85733 13.3617 4.568 13.1937 4.4C13.0257 4.22267 12.7737 4.134 12.4377 4.134C12.2137 4.134 11.999 4.17133 11.7937 4.246C11.5884 4.31133 11.355 4.42333 11.0937 4.582C10.8417 4.73133 10.5337 4.94133 10.1697 5.212L10.0857 4.302C10.571 3.86333 11.0424 3.53667 11.4997 3.322C11.957 3.10733 12.433 3 12.9277 3ZM24.547 3C25.0697 3 25.5084 3.07 25.863 3.21C26.227 3.34067 26.4977 3.56933 26.675 3.896C26.8617 4.22267 26.955 4.67067 26.955 5.24V10H25.891L25.681 8.516L25.597 8.348V5.24C25.597 4.83867 25.5037 4.54933 25.317 4.372C25.1304 4.19467 24.7757 4.106 24.253 4.106C23.8984 4.106 23.4504 4.12467 22.909 4.162C22.377 4.19933 21.8497 4.23667 21.327 4.274L21.201 3.308C21.5184 3.252 21.8684 3.20067 22.251 3.154C22.643 3.10733 23.0397 3.07 23.441 3.042C23.8424 3.014 24.211 3 24.547 3ZM26.339 5.786L26.325 6.738L23.105 6.752C22.7877 6.76133 22.5637 6.84533 22.433 7.004C22.3117 7.15333 22.251 7.36333 22.251 7.634V8.054C22.251 8.39 22.3304 8.63733 22.489 8.796C22.657 8.94533 22.9184 9.02 23.273 9.02C23.5344 9.02 23.8237 8.97333 24.141 8.88C24.4677 8.77733 24.7944 8.628 25.121 8.432C25.4477 8.22667 25.7417 7.97 26.003 7.662V8.544C25.9097 8.67467 25.7697 8.83333 25.583 9.02C25.3964 9.19733 25.1677 9.37 24.897 9.538C24.6357 9.706 24.3417 9.846 24.015 9.958C23.6977 10.07 23.3477 10.126 22.965 10.126C22.5544 10.126 22.1904 10.056 21.873 9.916C21.565 9.76667 21.3224 9.552 21.145 9.272C20.9677 8.98267 20.879 8.63267 20.879 8.222V7.48C20.879 6.948 21.047 6.53267 21.383 6.234C21.7284 5.93533 22.2044 5.786 22.811 5.786H26.339ZM30.0453 3.168L30.2133 4.484L30.3393 4.68V10H28.9953V3.168H30.0453ZM33.3913 3L33.2513 4.26H32.8173C32.4346 4.26 32.0426 4.33467 31.6413 4.484C31.2493 4.63333 30.7686 4.848 30.1993 5.128L30.1013 4.302C30.596 3.89133 31.0953 3.574 31.5993 3.35C32.1126 3.11667 32.6073 3 33.0833 3H33.3913ZM36.5728 1.166V8.054C36.5728 8.37133 36.6381 8.6 36.7688 8.74C36.9088 8.87067 37.1421 8.936 37.4688 8.936H38.4768L38.6308 9.93C38.4721 9.97667 38.2901 10.014 38.0848 10.042C37.8888 10.07 37.6881 10.0887 37.4828 10.098C37.2868 10.1167 37.1281 10.126 37.0068 10.126C36.4281 10.126 35.9848 9.96733 35.6768 9.65C35.3688 9.33267 35.2148 8.87533 35.2148 8.278V1.166H36.5728ZM38.7008 3.168V4.176H33.9828V3.238L35.3268 3.168H38.7008ZM54.8947 0.339999L53.0047 9.594C52.9767 9.706 52.916 9.804 52.8227 9.888C52.7293 9.96267 52.6127 10 52.4727 10H50.9607C50.8207 10 50.6993 9.96267 50.5967 9.888C50.5033 9.804 50.4473 9.70133 50.4287 9.58L49.0007 2.496C48.9633 2.30933 48.926 2.12267 48.8887 1.936C48.8513 1.74 48.814 1.55333 48.7767 1.376H48.4967C48.4593 1.55333 48.422 1.74 48.3847 1.936C48.3567 2.132 48.324 2.31867 48.2867 2.496L46.8727 9.58C46.8447 9.70133 46.7793 9.804 46.6767 9.888C46.5833 9.96267 46.4713 10 46.3407 10H44.8147C44.6747 10 44.5533 9.96267 44.4507 9.888C44.3573 9.804 44.3013 9.706 44.2827 9.594L42.3927 0.339999H43.8487L45.2627 7.718C45.3 7.90467 45.3327 8.10067 45.3607 8.306C45.3887 8.51133 45.4213 8.726 45.4587 8.95H45.7667C45.804 8.73533 45.8413 8.52533 45.8787 8.32C45.916 8.11467 45.9533 7.914 45.9907 7.718L47.4047 0.787999C47.4233 0.657333 47.4793 0.549999 47.5727 0.465999C47.6753 0.381999 47.7967 0.339999 47.9367 0.339999H49.3507C49.4907 0.339999 49.6073 0.381999 49.7007 0.465999C49.794 0.549999 49.8547 0.657333 49.8827 0.787999L51.2967 7.718C51.3433 7.93267 51.3807 8.14267 51.4087 8.348C51.446 8.544 51.474 8.74467 51.4927 8.95H51.8427C51.8613 8.74467 51.8847 8.53933 51.9127 8.334C51.9407 8.12867 51.9733 7.928 52.0107 7.732L53.4387 0.339999H54.8947ZM59.4923 3C60.015 3 60.4537 3.07 60.8083 3.21C61.1723 3.34067 61.443 3.56933 61.6203 3.896C61.807 4.22267 61.9003 4.67067 61.9003 5.24V10H60.8363L60.6263 8.516L60.5423 8.348V5.24C60.5423 4.83867 60.449 4.54933 60.2623 4.372C60.0757 4.19467 59.721 4.106 59.1983 4.106C58.8437 4.106 58.3957 4.12467 57.8543 4.162C57.3223 4.19933 56.795 4.23667 56.2723 4.274L56.1463 3.308C56.4637 3.252 56.8137 3.20067 57.1963 3.154C57.5883 3.10733 57.985 3.07 58.3863 3.042C58.7877 3.014 59.1563 3 59.4923 3ZM61.2843 5.786L61.2703 6.738L58.0503 6.752C57.733 6.76133 57.509 6.84533 57.3783 7.004C57.257 7.15333 57.1963 7.36333 57.1963 7.634V8.054C57.1963 8.39 57.2757 8.63733 57.4343 8.796C57.6023 8.94533 57.8637 9.02 58.2183 9.02C58.4797 9.02 58.769 8.97333 59.0863 8.88C59.413 8.77733 59.7397 8.628 60.0663 8.432C60.393 8.22667 60.687 7.97 60.9483 7.662V8.544C60.855 8.67467 60.715 8.83333 60.5283 9.02C60.3417 9.19733 60.113 9.37 59.8423 9.538C59.581 9.706 59.287 9.846 58.9603 9.958C58.643 10.07 58.293 10.126 57.9103 10.126C57.4997 10.126 57.1357 10.056 56.8183 9.916C56.5103 9.76667 56.2677 9.552 56.0903 9.272C55.913 8.98267 55.8243 8.63267 55.8243 8.222V7.48C55.8243 6.948 55.9923 6.53267 56.3283 6.234C56.6737 5.93533 57.1497 5.786 57.7563 5.786H61.2843ZM65.2986 0.199999L65.2846 8.054C65.2846 8.34333 65.364 8.56267 65.5226 8.712C65.6906 8.86133 65.9193 8.936 66.2086 8.936H66.8526L67.0066 9.93C66.9133 9.97667 66.7826 10.014 66.6146 10.042C66.456 10.07 66.288 10.0887 66.1106 10.098C65.9426 10.1167 65.798 10.126 65.6766 10.126C65.154 10.126 64.734 9.97667 64.4166 9.678C64.1086 9.37933 63.9546 8.94533 63.9546 8.376V0.199999H65.2986ZM69.5369 0.199999L69.5229 8.054C69.5229 8.34333 69.6022 8.56267 69.7609 8.712C69.9289 8.86133 70.1576 8.936 70.4469 8.936H71.0909L71.2449 9.93C71.1516 9.97667 71.0209 10.014 70.8529 10.042C70.6942 10.07 70.5262 10.0887 70.3489 10.098C70.1809 10.1167 70.0362 10.126 69.9149 10.126C69.3922 10.126 68.9722 9.97667 68.6549 9.678C68.3469 9.37933 68.1929 8.94533 68.1929 8.376V0.199999H69.5369ZM75.3012 3C76.3559 3 77.1165 3.19133 77.5832 3.574C78.0592 3.94733 78.2972 4.50267 78.2972 5.24C78.3065 5.856 78.1712 6.332 77.8912 6.668C77.6205 7.004 77.1772 7.172 76.5612 7.172H72.6132V6.206H76.2112C76.5192 6.206 76.7199 6.108 76.8132 5.912C76.9065 5.716 76.9532 5.492 76.9532 5.24C76.9439 4.82 76.8179 4.52133 76.5752 4.344C76.3419 4.16667 75.9359 4.078 75.3572 4.078C74.8812 4.078 74.5079 4.148 74.2372 4.288C73.9665 4.428 73.7752 4.67067 73.6632 5.016C73.5605 5.36133 73.5092 5.84667 73.5092 6.472C73.5092 7.172 73.5745 7.70867 73.7052 8.082C73.8452 8.446 74.0645 8.698 74.3632 8.838C74.6712 8.978 75.0772 9.048 75.5812 9.048C75.9359 9.048 76.3325 9.034 76.7712 9.006C77.2192 8.96867 77.6252 8.92667 77.9892 8.88L78.1292 9.762C77.9052 9.85533 77.6345 9.93467 77.3172 10C76.9999 10.056 76.6732 10.098 76.3372 10.126C76.0012 10.154 75.6932 10.168 75.4132 10.168C74.6105 10.168 73.9665 10.0467 73.4812 9.804C72.9959 9.56133 72.6412 9.17867 72.4172 8.656C72.1932 8.124 72.0812 7.42867 72.0812 6.57C72.0812 5.674 72.1932 4.96467 72.4172 4.442C72.6412 3.91933 72.9912 3.55067 73.4672 3.336C73.9432 3.112 74.5545 3 75.3012 3ZM81.8951 1.166V8.054C81.8951 8.37133 81.9604 8.6 82.0911 8.74C82.2311 8.87067 82.4644 8.936 82.7911 8.936H83.7991L83.9531 9.93C83.7944 9.97667 83.6124 10.014 83.4071 10.042C83.2111 10.07 83.0104 10.0887 82.8051 10.098C82.6091 10.1167 82.4504 10.126 82.3291 10.126C81.7504 10.126 81.3071 9.96733 80.9991 9.65C80.6911 9.33267 80.5371 8.87533 80.5371 8.278V1.166H81.8951ZM84.0231 3.168V4.176H79.3051V3.238L80.6491 3.168H84.0231ZM91.9189 0.339999V10H90.5189V0.339999H91.9189ZM94.9989 0.339999V1.544H87.4529V0.339999H94.9989ZM97.7794 3C98.5821 3 99.2214 3.11667 99.6974 3.35C100.183 3.58333 100.528 3.966 100.733 4.498C100.948 5.02067 101.055 5.716 101.055 6.584C101.055 7.46133 100.948 8.166 100.733 8.698C100.528 9.22067 100.183 9.59867 99.6974 9.832C99.2214 10.0653 98.5821 10.182 97.7794 10.182C96.9861 10.182 96.3467 10.0653 95.8614 9.832C95.3854 9.59867 95.0401 9.22067 94.8254 8.698C94.6107 8.166 94.5034 7.46133 94.5034 6.584C94.5034 5.716 94.6107 5.02067 94.8254 4.498C95.0401 3.966 95.3854 3.58333 95.8614 3.35C96.3467 3.11667 96.9861 3 97.7794 3ZM97.7794 4.092C97.3127 4.092 96.9441 4.16667 96.6734 4.316C96.4027 4.46533 96.2114 4.722 96.0994 5.086C95.9874 5.44067 95.9314 5.94 95.9314 6.584C95.9314 7.228 95.9874 7.732 96.0994 8.096C96.2114 8.46 96.4027 8.71667 96.6734 8.866C96.9441 9.006 97.3127 9.076 97.7794 9.076C98.2461 9.076 98.6147 9.006 98.8854 8.866C99.1654 8.71667 99.3614 8.46 99.4734 8.096C99.5854 7.732 99.6414 7.228 99.6414 6.584C99.6414 5.94 99.5854 5.44067 99.4734 5.086C99.3614 4.722 99.1654 4.46533 98.8854 4.316C98.6147 4.16667 98.2461 4.092 97.7794 4.092ZM108.619 3.168L106.533 5.646C106.468 5.73933 106.384 5.83733 106.281 5.94C106.178 6.03333 106.094 6.10333 106.029 6.15V6.178C106.094 6.22467 106.178 6.30867 106.281 6.43C106.384 6.542 106.468 6.654 106.533 6.766L108.843 10H107.275L104.643 6.094L107.051 3.168H108.619ZM104.181 0.199999L104.195 4.498C104.195 4.79667 104.181 5.07667 104.153 5.338C104.134 5.59 104.097 5.856 104.041 6.136C104.097 6.39733 104.134 6.66333 104.153 6.934C104.172 7.20467 104.181 7.46133 104.181 7.704V10H102.837V0.199999H104.181ZM105.315 5.674V6.626H103.719V5.674H105.315ZM112.748 3C113.803 3 114.564 3.19133 115.03 3.574C115.506 3.94733 115.744 4.50267 115.744 5.24C115.754 5.856 115.618 6.332 115.338 6.668C115.068 7.004 114.624 7.172 114.008 7.172H110.06V6.206H113.658C113.966 6.206 114.167 6.108 114.26 5.912C114.354 5.716 114.4 5.492 114.4 5.24C114.391 4.82 114.265 4.52133 114.022 4.344C113.789 4.16667 113.383 4.078 112.804 4.078C112.328 4.078 111.955 4.148 111.684 4.288C111.414 4.428 111.222 4.67067 111.11 5.016C111.008 5.36133 110.956 5.84667 110.956 6.472C110.956 7.172 111.022 7.70867 111.152 8.082C111.292 8.446 111.512 8.698 111.81 8.838C112.118 8.978 112.524 9.048 113.028 9.048C113.383 9.048 113.78 9.034 114.218 9.006C114.666 8.96867 115.072 8.92667 115.436 8.88L115.576 9.762C115.352 9.85533 115.082 9.93467 114.764 10C114.447 10.056 114.12 10.098 113.784 10.126C113.448 10.154 113.14 10.168 112.86 10.168C112.058 10.168 111.414 10.0467 110.928 9.804C110.443 9.56133 110.088 9.17867 109.864 8.656C109.64 8.124 109.528 7.42867 109.528 6.57C109.528 5.674 109.64 4.96467 109.864 4.442C110.088 3.91933 110.438 3.55067 110.914 3.336C111.39 3.112 112.002 3 112.748 3ZM121.722 3C122.964 3 123.584 3.62533 123.584 4.876V10H122.226V5.268C122.226 4.83867 122.156 4.54467 122.016 4.386C121.876 4.218 121.638 4.134 121.302 4.134C120.901 4.134 120.5 4.232 120.098 4.428C119.697 4.61467 119.216 4.876 118.656 5.212L118.6 4.302C119.123 3.882 119.646 3.56 120.168 3.336C120.691 3.112 121.209 3 121.722 3ZM118.572 3.168L118.698 4.484L118.796 4.68V10H117.452V3.168H118.572Z" fill="#C6C6C6"/>
</svg>
