<svg width="26" height="26" viewBox="0 0 26 26" fill="none" xmlns="http://www.w3.org/2000/svg">
<path d="M17.5967 23.292C17.4057 23.3477 17.2526 23.4749 17.0853 23.5735C15.7105 24.3796 14.3372 25.1874 12.9545 26C12.2821 25.6072 11.6144 25.216 10.9452 24.8249C10.1307 24.3494 9.31466 23.874 8.50019 23.4001C8.45284 23.3731 8.39917 23.3524 8.35024 23.3286C8.18134 23.1982 7.99983 23.0885 7.8041 23.0026C7.49315 22.7768 7.15221 22.5987 6.82389 22.4031C5.94786 21.8816 5.06867 21.3632 4.19106 20.8432C4.13739 20.8035 4.08372 20.7637 4.0127 20.7112C4.0127 20.5761 4.0127 20.4346 4.0127 20.2915C4.01585 20.2008 4.02217 20.1102 4.02217 20.018C4.02217 18.5439 4.02217 17.0699 4.02217 15.5959C4.0853 15.5466 4.14686 15.502 4.20684 15.4559C4.4152 15.3494 4.62513 15.2476 4.81454 15.1077C5.92892 14.4573 7.04487 13.8086 8.15925 13.1566C8.1703 13.1502 8.17345 13.1328 8.1845 13.1137C8.19082 13.0246 8.19555 12.9276 8.20344 12.8179C7.08275 12.166 5.96838 11.5172 4.85242 10.8684C4.63618 10.7428 4.41993 10.6172 4.20526 10.4916C4.14371 10.4471 4.08373 10.4009 4.02848 10.3612C4.02848 8.655 4.02848 6.95676 4.02848 5.25852C4.0853 5.21241 4.14055 5.16946 4.19422 5.12653C4.40257 4.99455 4.61092 4.86416 4.81928 4.73218C5.48853 4.34261 6.16095 3.9578 6.82705 3.56345C7.16799 3.36151 7.52472 3.18341 7.84514 2.94649C8.04876 2.87493 8.22081 2.74772 8.39601 2.62528C9.78188 1.82227 11.1662 1.01926 12.552 0.217845C12.672 0.14788 12.7935 0.0779156 12.9261 0C13.2939 0.211485 13.6617 0.424562 14.0295 0.637638C15.1549 1.29117 16.2787 1.94471 17.4041 2.59825C17.4404 2.61892 17.4799 2.63324 17.5178 2.65073C17.6977 2.79543 17.9156 2.86698 18.1129 2.97987C18.3102 3.09754 18.5059 3.2168 18.7048 3.33129C19.5145 3.7972 20.3243 4.25991 21.134 4.72423C21.325 4.86257 21.5381 4.95958 21.7527 5.05657C21.8411 5.1011 21.8474 5.179 21.8474 5.26805C21.8459 6.91064 21.8459 8.55323 21.849 10.1958C21.849 10.2912 21.8222 10.3564 21.748 10.4073C21.5444 10.5361 21.3408 10.6649 21.1371 10.7937C19.9912 11.4615 18.8453 12.131 17.7088 12.7925C17.6962 12.9308 17.6867 13.0421 17.6772 13.1566C18.8358 13.8308 19.9833 14.5003 21.1308 15.1681C21.3329 15.2985 21.5381 15.4257 21.7575 15.5275C21.868 15.5752 21.8443 15.6738 21.8443 15.7628C21.8474 17.248 21.849 18.7347 21.8522 20.2199C21.8506 20.3105 21.8506 20.4012 21.8443 20.4902C21.8364 20.6015 21.8869 20.7303 21.7606 20.8114C21.3281 21.0643 20.8941 21.3123 20.4632 21.5683C19.685 22.031 18.91 22.4969 18.135 22.9613C17.9487 23.0583 17.7546 23.1441 17.5967 23.292ZM12.2079 15.5227C12.1874 15.5052 12.1701 15.483 12.1464 15.4686C11.0667 14.8358 9.9855 14.2045 8.90585 13.5716C8.87428 13.5541 8.84587 13.5351 8.80798 13.5685C8.82219 15.0393 8.78904 16.5165 8.82851 18.0033C10.2128 18.8142 11.5845 19.6204 12.9514 20.4219C14.2331 19.6697 15.4958 18.9287 16.7775 18.1766C15.8746 17.6487 15.0018 17.1335 14.1242 16.6278C13.6711 16.3671 13.2355 16.0713 12.7588 15.8535C12.5741 15.7421 12.391 15.6324 12.2079 15.5227ZM12.6578 9.85871C12.8425 9.99546 13.0382 10.1131 13.2465 10.2133C14.5203 10.9607 15.7941 11.7096 17.0885 12.4697C17.0885 10.9495 17.0885 9.46914 17.0885 7.9808C15.6931 7.16666 14.3009 6.3541 12.9261 5.5511C11.635 6.3064 10.3801 7.04103 9.09684 7.79156C9.85291 8.23361 10.5743 8.65817 11.2988 9.07796C11.7502 9.33874 12.189 9.62496 12.6578 9.85871Z" fill="#FA0100"/>
<path d="M18.1107 2.97683C17.9134 2.86553 17.694 2.79238 17.5156 2.64768C18.3443 2.16587 19.1746 1.68566 20.0032 1.20385C20.3663 0.993956 20.7356 0.792013 21.0908 0.569397C21.3402 0.413566 21.5612 0.421521 21.8121 0.574172C23.0828 1.34061 24.3581 2.09909 25.6351 2.85439C25.8829 3.00068 25.9997 3.19467 25.9997 3.48885C25.995 9.82704 25.995 16.1652 25.9997 22.5034C25.9997 22.8231 25.875 23.0298 25.602 23.184C24.3708 23.8789 23.1459 24.5833 21.9384 25.3195C21.618 25.5151 21.3291 25.5135 21.0008 25.3163C19.9259 24.6723 18.8399 24.049 17.7587 23.4162C17.7003 23.3812 17.6261 23.3637 17.5977 23.2889C17.754 23.1411 17.9497 23.0552 18.1359 22.955C18.8825 23.3939 19.6292 23.8328 20.3773 24.2701C20.7435 24.4847 21.1113 24.6962 21.4743 24.9061C22.6961 24.1953 23.902 23.4941 25.1316 22.7785C24.7606 22.5623 24.4165 22.3619 24.074 22.16C23.3038 21.7084 22.5319 21.2552 21.7616 20.8036C21.8879 20.7225 21.8374 20.5937 21.8453 20.4824C21.8516 20.3918 21.85 20.3011 21.8532 20.2121C23.0307 20.8911 24.2082 21.5684 25.4031 22.257C25.4031 15.9458 25.4031 9.67439 25.4031 3.39026C24.1956 2.67153 22.9912 1.95439 21.7521 1.21817C21.7521 2.53001 21.7521 3.78938 21.7521 5.04875C21.5391 4.95175 21.3244 4.85476 21.1334 4.71642C21.1334 3.562 21.1334 2.40916 21.1334 1.21498C20.7988 1.40739 20.5036 1.57594 20.2084 1.74767C19.5092 2.15951 18.8099 2.56817 18.1107 2.97683Z" fill="#C4B779"/>
<path d="M4.01076 20.2904C4.01076 20.4336 4.01076 20.5751 4.01076 20.7102C4.08179 20.7627 4.13546 20.8025 4.18912 20.8422C3.08427 21.4815 1.98094 22.1207 0.839729 22.7806C2.08512 23.5041 3.29735 24.2085 4.50165 24.9081C5.61287 24.2657 6.70831 23.6329 7.80216 23.0016C7.99789 23.0875 8.17941 23.1972 8.3483 23.3276C7.84794 23.6615 7.31285 23.9366 6.7967 24.2435C6.15428 24.6267 5.50396 24.9988 4.85996 25.382C4.61846 25.5251 4.39905 25.5251 4.15282 25.382C2.85539 24.6203 1.55318 23.8682 0.250972 23.1145C0.153109 23.0572 0.0631375 22.9937 0 22.8855C0 16.2897 0 9.68598 0 3.06633C0.596649 2.70856 1.19646 2.34919 1.79626 1.98982C2.55865 1.53346 3.32419 1.08346 4.08021 0.614378C4.37538 0.431515 4.62793 0.418791 4.93415 0.601655C6.08167 1.28699 7.24024 1.95166 8.39566 2.62428C8.22045 2.74512 8.0484 2.87393 7.84478 2.94548C7.8069 2.92958 7.76428 2.92004 7.72956 2.89937C7.04609 2.50343 6.36421 2.10749 5.68075 1.71155C5.4061 1.55254 5.12829 1.39512 4.81892 1.21862C4.81892 2.41916 4.81892 3.57517 4.81892 4.73277C4.61057 4.86475 4.40221 4.99514 4.19386 5.12712C4.19386 3.8423 4.19386 2.55909 4.19386 1.2377C2.97062 1.96597 1.7789 2.67835 0.591914 3.38595C0.591914 9.67803 0.591914 15.9558 0.591914 22.2606C1.17278 21.9235 1.72523 21.5975 2.28242 21.2795C2.85697 20.9488 3.41732 20.5894 4.01076 20.2904Z" fill="#C4B779"/>
<path d="M4.85273 10.8684C4.80222 10.9098 4.81011 10.9686 4.81011 11.0243C4.81169 12.3854 4.81326 13.7465 4.81484 15.1077C4.62543 15.2476 4.4155 15.3494 4.20715 15.4559C4.20715 13.8022 4.20557 12.1469 4.20557 10.4932C4.42023 10.6172 4.63648 10.7428 4.85273 10.8684Z" fill="#C4B779"/>
<path d="M21.1309 15.1647C21.1751 15.1107 21.1656 15.0455 21.1656 14.9835C21.1656 13.6398 21.1656 12.2962 21.1656 10.9509C21.1656 10.8953 21.1751 10.838 21.1356 10.7887C21.3392 10.6599 21.5428 10.5311 21.7465 10.4023C21.7496 11.7651 21.7512 13.1278 21.7543 14.4905C21.7543 14.834 21.7559 15.179 21.7575 15.5225C21.5381 15.4207 21.3329 15.2951 21.1309 15.1647Z" fill="#C4B779"/>
<path d="M12.6577 9.85903C12.6577 8.62192 12.6577 7.38323 12.6577 6.15089C12.7414 6.05708 12.8424 6.01096 12.9355 5.96484C13.0571 5.99188 13.1486 6.05548 13.2559 6.12067C13.2559 6.18269 13.2559 6.2463 13.2559 6.30831C13.2559 7.54701 13.2559 8.78412 13.2559 10.0228C13.2559 10.0864 13.2496 10.1484 13.2465 10.212C13.0381 10.1134 12.8424 9.99578 12.6577 9.85903Z" fill="#C4B779"/>
<path d="M12.7569 15.8516C11.8588 16.3764 10.9591 16.9027 10.0609 17.4274C9.81943 17.5689 9.57793 17.7073 9.33328 17.8488C9.23226 17.8122 9.14702 17.755 9.06494 17.6771C9.06494 17.5753 9.06494 17.4719 9.06494 17.3368C10.1036 16.7373 11.1548 16.1299 12.206 15.5225C12.3907 15.6322 12.5738 15.7419 12.7569 15.8516Z" fill="#C4B779"/>
</svg>
