<svg width="75" height="63" viewBox="0 0 75 63" fill="none" xmlns="http://www.w3.org/2000/svg">
<path d="M19.7998 27.2L31.8998 3" stroke="#EEA9A9" stroke-width="6" stroke-linecap="round"/>
<path d="M61.6001 27.2L49.5001 3" stroke="#EEA9A9" stroke-width="6" stroke-linecap="round"/>
<path d="M2.53866 30.6415C1.34752 27.9945 3.28371 25 6.18634 25H75.2137C78.1163 25 80.0525 27.9945 78.8613 30.6415L62.6613 66.6415C62.0154 68.0769 60.5877 69 59.0137 69H22.3863C20.8123 69 19.3846 68.0769 18.7387 66.6415L2.53866 30.6415Z" fill="url(#paint0_radial_146_623)"/>
<path d="M2.53866 30.6415C1.34752 27.9945 3.28371 25 6.18634 25H75.2137C78.1163 25 80.0525 27.9945 78.8613 30.6415L62.6613 66.6415C62.0154 68.0769 60.5877 69 59.0137 69H22.3863C20.8123 69 19.3846 68.0769 18.7387 66.6415L2.53866 30.6415Z" fill="url(#paint1_radial_146_623)" fill-opacity="0.04"/>
<path d="M2.53866 30.6415C1.34752 27.9945 3.28371 25 6.18634 25H75.2137C78.1163 25 80.0525 27.9945 78.8613 30.6415L62.6613 66.6415C62.0154 68.0769 60.5877 69 59.0137 69H22.3863C20.8123 69 19.3846 68.0769 18.7387 66.6415L2.53866 30.6415Z" fill="url(#paint2_radial_146_623)" fill-opacity="0.04"/>
<defs>
<radialGradient id="paint0_radial_146_623" cx="0" cy="0" r="1" gradientUnits="userSpaceOnUse" gradientTransform="translate(40.9025 14.1549) rotate(90.2115) scale(54.8454 80.5042)">
<stop stop-color="#FFAAAA"/>
<stop offset="1" stop-color="#631111"/>
</radialGradient>
<radialGradient id="paint1_radial_146_623" cx="0" cy="0" r="1" gradientUnits="userSpaceOnUse" gradientTransform="translate(67.1 53.6) rotate(26.5651) scale(11.0685 41.6023)">
<stop/>
<stop offset="1" stop-opacity="0"/>
</radialGradient>
<radialGradient id="paint2_radial_146_623" cx="0" cy="0" r="1" gradientUnits="userSpaceOnUse" gradientTransform="translate(14.3 56.9) rotate(164.932) scale(14.8092 39.5631)">
<stop/>
<stop offset="1" stop-opacity="0"/>
</radialGradient>
</defs>
</svg>
