<svg width="100" height="100" viewBox="0 0 100 100" fill="none" xmlns="http://www.w3.org/2000/svg">
<mask id="mask0_146_605" style="mask-type:alpha" maskUnits="userSpaceOnUse" x="0" y="0" width="100" height="100">
<rect width="100" height="100" rx="23.6364" fill="url(#paint0_linear_146_605)"/>
</mask>
<g mask="url(#mask0_146_605)">
<path d="M16.8492 13.8492C17.5292 13.8492 18.2692 13.8892 19.0692 13.9692C19.8692 14.0358 20.6492 14.1825 21.4092 14.4092L21.2092 16.4292C20.6225 16.4158 19.9358 16.4025 19.1492 16.3892C18.3625 16.3758 17.5892 16.3692 16.8292 16.3692C16.4558 16.3692 16.1358 16.3825 15.8692 16.4092C15.6158 16.4225 15.4092 16.4758 15.2492 16.5692C15.0892 16.6492 14.9758 16.7758 14.9092 16.9492C14.8425 17.1225 14.8092 17.3625 14.8092 17.6692C14.8092 18.1358 14.9158 18.4758 15.1292 18.6892C15.3558 18.9025 15.7358 19.0958 16.2692 19.2692L18.9292 20.1292C20.0358 20.5025 20.8025 21.0092 21.2292 21.6492C21.6558 22.2892 21.8692 23.1292 21.8692 24.1692C21.8692 24.9558 21.7758 25.6092 21.5892 26.1292C21.4025 26.6492 21.1092 27.0558 20.7092 27.3492C20.3092 27.6425 19.7825 27.8492 19.1292 27.9692C18.4758 28.1025 17.6758 28.1692 16.7292 28.1692C16.2758 28.1692 15.6292 28.1358 14.7892 28.0692C13.9492 28.0158 12.9892 27.8692 11.9092 27.6292L12.1092 25.4692C12.8958 25.4825 13.5758 25.5025 14.1492 25.5292C14.7358 25.5425 15.2358 25.5558 15.6492 25.5692C16.0625 25.5692 16.4225 25.5692 16.7292 25.5692C17.2625 25.5692 17.6758 25.5358 17.9692 25.4692C18.2758 25.4025 18.4892 25.2692 18.6092 25.0692C18.7292 24.8692 18.7892 24.5825 18.7892 24.2092C18.7892 23.8892 18.7425 23.6358 18.6492 23.4492C18.5692 23.2492 18.4292 23.0958 18.2292 22.9892C18.0425 22.8692 17.7825 22.7625 17.4492 22.6692L14.6492 21.7092C13.5958 21.3225 12.8492 20.8158 12.4092 20.1892C11.9692 19.5625 11.7492 18.7358 11.7492 17.7092C11.7492 16.9092 11.8425 16.2625 12.0292 15.7692C12.2292 15.2625 12.5292 14.8692 12.9292 14.5892C13.3425 14.3092 13.8692 14.1158 14.5092 14.0092C15.1625 13.9025 15.9425 13.8492 16.8492 13.8492ZM36.1616 17.7692C37.0549 17.7692 37.7349 18.0025 38.2016 18.4692C38.6682 18.9358 38.9016 19.6158 38.9016 20.5092V27.9092H35.9616V21.4292C35.9616 21.0158 35.8816 20.7225 35.7216 20.5492C35.5616 20.3625 35.2816 20.2692 34.8816 20.2692C34.6416 20.2692 34.4149 20.3025 34.2016 20.3692C33.9882 20.4358 33.7416 20.5425 33.4616 20.6892C33.1816 20.8358 32.8416 21.0358 32.4416 21.2892L32.2816 19.6492C32.9216 19.0225 33.5482 18.5558 34.1616 18.2492C34.7882 17.9292 35.4549 17.7692 36.1616 17.7692ZM26.0016 18.0292L26.3016 19.9892L26.6016 20.2492V27.9092H23.6416V18.0292H26.0016ZM30.0016 17.7692C30.8816 17.7692 31.5482 18.0025 32.0016 18.4692C32.4682 18.9225 32.7016 19.6025 32.7016 20.5092V27.9092H29.8616V21.4292C29.8616 21.0025 29.7682 20.7025 29.5816 20.5292C29.4082 20.3558 29.1349 20.2692 28.7616 20.2692C28.5349 20.2692 28.3082 20.3025 28.0816 20.3692C27.8682 20.4225 27.6149 20.5225 27.3216 20.6692C27.0416 20.8158 26.6949 21.0225 26.2816 21.2892L26.1016 19.6492C26.7549 19.0225 27.3882 18.5558 28.0016 18.2492C28.6149 17.9292 29.2816 17.7692 30.0016 17.7692ZM46.2924 17.7692C47.1191 17.7692 47.8191 17.8825 48.3924 18.1092C48.9657 18.3225 49.3991 18.6958 49.6924 19.2292C49.9991 19.7492 50.1524 20.4692 50.1524 21.3892V27.9092H47.7924L47.3724 25.7692L47.1724 25.4692V21.3692C47.1724 20.9025 47.0591 20.5625 46.8324 20.3492C46.6191 20.1358 46.2057 20.0292 45.5924 20.0292C45.0857 20.0292 44.4524 20.0492 43.6924 20.0892C42.9324 20.1158 42.1524 20.1558 41.3524 20.2092L41.0724 18.2492C41.5524 18.1558 42.1057 18.0758 42.7324 18.0092C43.3591 17.9425 43.9857 17.8892 44.6124 17.8492C45.2391 17.7958 45.7991 17.7692 46.2924 17.7692ZM48.9324 21.8292L48.9124 23.4892L44.5124 23.5092C44.1524 23.5092 43.8924 23.5958 43.7324 23.7692C43.5857 23.9425 43.5124 24.1758 43.5124 24.4692V24.9492C43.5124 25.2825 43.6057 25.5425 43.7924 25.7292C43.9791 25.9025 44.2791 25.9892 44.6924 25.9892C45.0391 25.9892 45.4124 25.9158 45.8124 25.7692C46.2257 25.6225 46.6324 25.4158 47.0324 25.1492C47.4324 24.8825 47.7857 24.5692 48.0924 24.2092V25.4892C47.9724 25.6892 47.7924 25.9425 47.5524 26.2492C47.3257 26.5425 47.0324 26.8358 46.6724 27.1292C46.3124 27.4092 45.8924 27.6492 45.4124 27.8492C44.9324 28.0492 44.3857 28.1492 43.7724 28.1492C43.1724 28.1492 42.6324 28.0425 42.1524 27.8292C41.6724 27.6158 41.2924 27.3025 41.0124 26.8892C40.7324 26.4758 40.5924 25.9625 40.5924 25.3492V24.3292C40.5924 23.5425 40.8591 22.9292 41.3924 22.4892C41.9257 22.0492 42.6591 21.8292 43.5924 21.8292H48.9324ZM54.6123 18.0292L54.9723 19.9892L55.2523 20.2492V27.9092H52.2923V18.0292H54.6123ZM59.4323 17.7692L59.1523 20.5092H58.3323C57.8656 20.5092 57.3789 20.5758 56.8723 20.7092C56.3656 20.8425 55.7256 21.0425 54.9523 21.3092L54.7523 19.6492C55.4456 19.0358 56.1456 18.5692 56.8523 18.2492C57.5589 17.9292 58.2456 17.7692 58.9123 17.7692H59.4323ZM64.5011 15.2892V24.7492C64.5011 25.1092 64.5811 25.3692 64.7411 25.5292C64.9144 25.6758 65.1944 25.7492 65.5811 25.7492H66.8611L67.1811 27.7492C66.9411 27.8292 66.6477 27.8958 66.3011 27.9492C65.9544 28.0158 65.6077 28.0625 65.2611 28.0892C64.9144 28.1292 64.6211 28.1492 64.3811 28.1492C63.4877 28.1492 62.7877 27.9092 62.2811 27.4292C61.7877 26.9492 61.5411 26.2758 61.5411 25.4092L61.5211 15.2892H64.5011ZM67.2611 18.0292V19.9692H59.8011V18.1292L61.7211 18.0292H67.2611ZM29.9092 32.1092L27.6492 45.0692C27.6092 45.3092 27.4892 45.5092 27.2892 45.6692C27.0892 45.8292 26.8492 45.9092 26.5692 45.9092H23.7092C23.4425 45.9092 23.2025 45.8292 22.9892 45.6692C22.7892 45.5092 22.6692 45.3025 22.6292 45.0492L21.0892 36.0692C21.0492 35.7625 21.0092 35.4625 20.9692 35.1692C20.9292 34.8625 20.8892 34.5625 20.8492 34.2692H20.4692C20.4425 34.5625 20.4092 34.8625 20.3692 35.1692C20.3292 35.4758 20.2892 35.7758 20.2492 36.0692L18.7092 45.0492C18.6692 45.3025 18.5425 45.5092 18.3292 45.6692C18.1292 45.8292 17.8958 45.9092 17.6292 45.9092H14.7492C14.4825 45.9092 14.2425 45.8292 14.0292 45.6692C13.8292 45.5092 13.7092 45.3092 13.6692 45.0692L11.4092 32.1092H14.4892L15.9292 41.7092C15.9692 42.0025 16.0025 42.3158 16.0292 42.6492C16.0558 42.9825 16.0825 43.3358 16.1092 43.7092H16.4892C16.5425 43.3892 16.5958 43.0558 16.6492 42.7092C16.7158 42.3492 16.7692 42.0158 16.8092 41.7092L18.3292 33.0492C18.3692 32.7692 18.4892 32.5425 18.6892 32.3692C18.8892 32.1958 19.1292 32.1092 19.4092 32.1092H21.9292C22.2092 32.1092 22.4425 32.1958 22.6292 32.3692C22.8292 32.5425 22.9492 32.7692 22.9892 33.0492L24.5292 41.7292C24.5825 42.0492 24.6358 42.3825 24.6892 42.7292C24.7425 43.0625 24.7892 43.3892 24.8292 43.7092H25.2292C25.2558 43.3892 25.2825 43.0558 25.3092 42.7092C25.3492 42.3625 25.3825 42.0425 25.4092 41.7492L26.8292 32.1092H29.9092ZM36.4006 35.7692C37.2273 35.7692 37.9273 35.8825 38.5006 36.1092C39.074 36.3225 39.5073 36.6958 39.8006 37.2292C40.1073 37.7492 40.2606 38.4692 40.2606 39.3892V45.9092H37.9006L37.4806 43.7692L37.2806 43.4692V39.3692C37.2806 38.9025 37.1673 38.5625 36.9406 38.3492C36.7273 38.1358 36.314 38.0292 35.7006 38.0292C35.194 38.0292 34.5606 38.0492 33.8006 38.0892C33.0406 38.1158 32.2606 38.1558 31.4606 38.2092L31.1806 36.2492C31.6606 36.1558 32.214 36.0758 32.8406 36.0092C33.4673 35.9425 34.094 35.8892 34.7206 35.8492C35.3473 35.7958 35.9073 35.7692 36.4006 35.7692ZM39.0406 39.8292L39.0206 41.4892L34.6206 41.5092C34.2606 41.5092 34.0006 41.5958 33.8406 41.7692C33.694 41.9425 33.6206 42.1758 33.6206 42.4692V42.9492C33.6206 43.2825 33.714 43.5425 33.9006 43.7292C34.0873 43.9025 34.3873 43.9892 34.8006 43.9892C35.1473 43.9892 35.5206 43.9158 35.9206 43.7692C36.334 43.6225 36.7406 43.4158 37.1406 43.1492C37.5406 42.8825 37.894 42.5692 38.2006 42.2092V43.4892C38.0806 43.6892 37.9006 43.9425 37.6606 44.2492C37.434 44.5425 37.1406 44.8358 36.7806 45.1292C36.4206 45.4092 36.0006 45.6492 35.5206 45.8492C35.0406 46.0492 34.494 46.1492 33.8806 46.1492C33.2806 46.1492 32.7406 46.0425 32.2606 45.8292C31.7806 45.6158 31.4006 45.3025 31.1206 44.8892C30.8406 44.4758 30.7006 43.9625 30.7006 43.3492V42.3292C30.7006 41.5425 30.9673 40.9292 31.5006 40.4892C32.034 40.0492 32.7673 39.8292 33.7006 39.8292H39.0406ZM45.3805 31.9092L45.3605 42.7492C45.3605 43.0825 45.4605 43.3358 45.6605 43.5092C45.8605 43.6692 46.1538 43.7492 46.5405 43.7492H47.3405L47.6805 45.7492C47.5205 45.8292 47.2938 45.8958 47.0005 45.9492C46.7072 46.0158 46.4072 46.0625 46.1005 46.0892C45.7938 46.1292 45.5338 46.1492 45.3205 46.1492C44.4272 46.1492 43.7205 45.9158 43.2005 45.4492C42.6805 44.9825 42.4205 44.3292 42.4205 43.4892V31.9092H45.3805ZM51.7567 31.9092L51.7367 42.7492C51.7367 43.0825 51.8367 43.3358 52.0367 43.5092C52.2367 43.6692 52.53 43.7492 52.9167 43.7492H53.7167L54.0567 45.7492C53.8967 45.8292 53.67 45.8958 53.3767 45.9492C53.0833 46.0158 52.7833 46.0625 52.4767 46.0892C52.17 46.1292 51.91 46.1492 51.6967 46.1492C50.8033 46.1492 50.0967 45.9158 49.5767 45.4492C49.0567 44.9825 48.7967 44.3292 48.7967 43.4892V31.9092H51.7567ZM59.8328 35.7692C61.4995 35.7692 62.6928 36.0558 63.4128 36.6292C64.1461 37.1892 64.5128 38.0292 64.5128 39.1492C64.5261 40.0558 64.2995 40.7358 63.8328 41.1892C63.3661 41.6292 62.5595 41.8492 61.4128 41.8492H55.8928V40.1892H60.5928C61.0461 40.1892 61.3328 40.0958 61.4528 39.9092C61.5861 39.7092 61.6528 39.4358 61.6528 39.0892C61.6395 38.6225 61.4995 38.3025 61.2328 38.1292C60.9795 37.9425 60.5461 37.8492 59.9328 37.8492C59.3861 37.8492 58.9595 37.9225 58.6528 38.0692C58.3461 38.2158 58.1328 38.4958 58.0128 38.9092C57.8928 39.3225 57.8328 39.9225 57.8328 40.7092C57.8328 41.5358 57.9061 42.1758 58.0528 42.6292C58.1995 43.0692 58.4461 43.3758 58.7928 43.5492C59.1528 43.7225 59.6461 43.8092 60.2728 43.8092C60.7261 43.8092 61.2861 43.7958 61.9528 43.7692C62.6328 43.7292 63.3128 43.6692 63.9928 43.5892L64.2728 45.4092C63.8861 45.5958 63.4461 45.7425 62.9528 45.8492C62.4595 45.9558 61.9528 46.0292 61.4328 46.0692C60.9128 46.1225 60.4128 46.1492 59.9328 46.1492C58.6795 46.1492 57.6661 45.9692 56.8928 45.6092C56.1328 45.2358 55.5795 44.6692 55.2328 43.9092C54.8995 43.1492 54.7328 42.1758 54.7328 40.9892C54.7328 39.6958 54.9061 38.6692 55.2528 37.9092C55.5995 37.1492 56.1461 36.6025 56.8928 36.2692C57.6395 35.9358 58.6195 35.7692 59.8328 35.7692ZM70.1155 33.2892V42.7492C70.1155 43.1092 70.1955 43.3692 70.3555 43.5292C70.5288 43.6758 70.8088 43.7492 71.1955 43.7492H72.4755L72.7955 45.7492C72.5555 45.8292 72.2622 45.8958 71.9155 45.9492C71.5688 46.0158 71.2222 46.0625 70.8755 46.0892C70.5288 46.1292 70.2355 46.1492 69.9955 46.1492C69.1022 46.1492 68.4022 45.9092 67.8955 45.4292C67.4022 44.9492 67.1555 44.2758 67.1555 43.4092L67.1355 33.2892H70.1155ZM72.8755 36.0292V37.9692H65.4155V36.1292L67.3355 36.0292H72.8755ZM18.4492 50.1092V63.9092H15.3892V50.1092H18.4492ZM22.6092 50.1092V52.5092H11.2492V50.1092H22.6092ZM26.6619 53.7692C27.9019 53.7692 28.8952 53.9425 29.6419 54.2892C30.3885 54.6225 30.9219 55.1692 31.2419 55.9292C31.5752 56.6892 31.7419 57.7092 31.7419 58.9892C31.7419 60.2425 31.5752 61.2492 31.2419 62.0092C30.9219 62.7692 30.3885 63.3158 29.6419 63.6492C28.8952 63.9825 27.9019 64.1492 26.6619 64.1492C25.4352 64.1492 24.4419 63.9825 23.6819 63.6492C22.9352 63.3158 22.3952 62.7692 22.0619 62.0092C21.7285 61.2492 21.5619 60.2425 21.5619 58.9892C21.5619 57.7092 21.7285 56.6892 22.0619 55.9292C22.3952 55.1692 22.9352 54.6225 23.6819 54.2892C24.4419 53.9425 25.4352 53.7692 26.6619 53.7692ZM26.6619 55.9292C26.1552 55.9292 25.7552 56.0158 25.4619 56.1892C25.1685 56.3625 24.9619 56.6692 24.8419 57.1092C24.7219 57.5492 24.6619 58.1758 24.6619 58.9892C24.6619 59.7892 24.7219 60.4092 24.8419 60.8492C24.9619 61.2892 25.1685 61.5958 25.4619 61.7692C25.7552 61.9292 26.1552 62.0092 26.6619 62.0092C27.1685 62.0092 27.5685 61.9292 27.8619 61.7692C28.1552 61.5958 28.3619 61.2892 28.4819 60.8492C28.6019 60.4092 28.6619 59.7892 28.6619 58.9892C28.6619 58.1758 28.6019 57.5492 28.4819 57.1092C28.3619 56.6692 28.1552 56.3625 27.8619 56.1892C27.5685 56.0158 27.1685 55.9292 26.6619 55.9292ZM43.1324 54.0292L40.5524 57.4692C40.4324 57.6558 40.2791 57.8358 40.0924 58.0092C39.9057 58.1825 39.7524 58.3092 39.6324 58.3892V58.4692C39.7524 58.5358 39.9057 58.6758 40.0924 58.8892C40.2791 59.1025 40.4324 59.3158 40.5524 59.5292L43.4724 63.9092H40.1724L36.7924 58.3492L39.8324 54.0292H43.1324ZM36.5324 49.9092L36.5524 55.6892C36.5524 56.1558 36.5257 56.6092 36.4724 57.0492C36.4191 57.4892 36.3391 57.9225 36.2324 58.3492C36.3257 58.7625 36.3991 59.1892 36.4524 59.6292C36.5057 60.0558 36.5324 60.4558 36.5324 60.8292V63.9092H33.5724V49.9092H36.5324ZM37.9124 57.5092V59.3092H35.6124V57.5092H37.9124ZM48.8668 53.7692C50.5335 53.7692 51.7268 54.0558 52.4468 54.6292C53.1801 55.1892 53.5468 56.0292 53.5468 57.1492C53.5601 58.0558 53.3335 58.7358 52.8668 59.1892C52.4001 59.6292 51.5935 59.8492 50.4468 59.8492H44.9268V58.1892H49.6268C50.0801 58.1892 50.3668 58.0958 50.4868 57.9092C50.6201 57.7092 50.6868 57.4358 50.6868 57.0892C50.6735 56.6225 50.5335 56.3025 50.2668 56.1292C50.0135 55.9425 49.5801 55.8492 48.9668 55.8492C48.4201 55.8492 47.9935 55.9225 47.6868 56.0692C47.3801 56.2158 47.1668 56.4958 47.0468 56.9092C46.9268 57.3225 46.8668 57.9225 46.8668 58.7092C46.8668 59.5358 46.9401 60.1758 47.0868 60.6292C47.2335 61.0692 47.4801 61.3758 47.8268 61.5492C48.1868 61.7225 48.6801 61.8092 49.3068 61.8092C49.7601 61.8092 50.3201 61.7958 50.9868 61.7692C51.6668 61.7292 52.3468 61.6692 53.0268 61.5892L53.3068 63.4092C52.9201 63.5958 52.4801 63.7425 51.9868 63.8492C51.4935 63.9558 50.9868 64.0292 50.4668 64.0692C49.9468 64.1225 49.4468 64.1492 48.9668 64.1492C47.7135 64.1492 46.7001 63.9692 45.9268 63.6092C45.1668 63.2358 44.6135 62.6692 44.2668 61.9092C43.9335 61.1492 43.7668 60.1758 43.7668 58.9892C43.7668 57.6958 43.9401 56.6692 44.2868 55.9092C44.6335 55.1492 45.1801 54.6025 45.9268 54.2692C46.6735 53.9358 47.6535 53.7692 48.8668 53.7692ZM62.1695 53.7692C64.0362 53.7692 64.9695 54.6825 64.9695 56.5092V63.9092H62.0095V57.4292C62.0095 56.9892 61.9295 56.6892 61.7695 56.5292C61.6095 56.3558 61.3362 56.2692 60.9495 56.2692C60.5228 56.2692 60.0828 56.3558 59.6295 56.5292C59.1762 56.6892 58.6162 56.9425 57.9495 57.2892L57.8095 55.6292C58.5162 55.0292 59.2362 54.5692 59.9695 54.2492C60.7162 53.9292 61.4495 53.7692 62.1695 53.7692ZM57.6695 54.0292L58.0095 55.9892L58.2495 56.2492V63.9092H55.2895V54.0292H57.6695Z" fill="#9B9B9B"/>
<path d="M0.41102 79.3093L-21.8459 96.8061C-24.2135 98.6673 -24.9523 101.933 -23.6161 104.632L-14.5455 122.955L106.364 119.773L112.067 63.2774C112.64 57.5998 106.027 54.0958 101.651 57.7582L92.6372 65.3018C89.8401 67.6427 85.6517 67.1583 83.4628 64.2408L78.0209 56.9875C75.0093 52.9735 68.7535 53.8618 66.9784 58.5555L64.2359 65.8072C62.8689 69.4218 58.6221 70.9936 55.2312 69.1399L47.6958 65.0205C44.6432 63.3517 40.8162 64.4437 39.1038 67.4721L27.0948 88.7111C24.8687 92.6483 19.3611 93.0716 16.5595 89.5208L9.3397 80.3704C7.16546 77.6147 3.17053 77.14 0.41102 79.3093Z" fill="url(#paint1_linear_146_605)" stroke="#DBDBDB" stroke-width="1.81818"/>
<g filter="url(#filter0_d_146_605)">
<circle cx="73.1821" cy="54.5454" r="5.45455" fill="#0052B4"/>
<circle cx="73.1821" cy="54.5454" r="4.09091" stroke="#DBDBDB" stroke-width="2.72727"/>
</g>
</g>
<defs>
<filter id="filter0_d_146_605" x="62.7275" y="44.9999" width="20.9092" height="20.9092" filterUnits="userSpaceOnUse" color-interpolation-filters="sRGB">
<feFlood flood-opacity="0" result="BackgroundImageFix"/>
<feColorMatrix in="SourceAlpha" type="matrix" values="0 0 0 0 0 0 0 0 0 0 0 0 0 0 0 0 0 0 127 0" result="hardAlpha"/>
<feOffset dy="0.909091"/>
<feGaussianBlur stdDeviation="2.5"/>
<feComposite in2="hardAlpha" operator="out"/>
<feColorMatrix type="matrix" values="0 0 0 0 0.2 0 0 0 0 0.2 0 0 0 0 0.2 0 0 0 0.25 0"/>
<feBlend mode="normal" in2="BackgroundImageFix" result="effect1_dropShadow_146_605"/>
<feBlend mode="normal" in="SourceGraphic" in2="effect1_dropShadow_146_605" result="shape"/>
</filter>
<linearGradient id="paint0_linear_146_605" x1="0" y1="0" x2="100" y2="100" gradientUnits="userSpaceOnUse">
<stop stop-color="#9FADF1"/>
<stop offset="1" stop-color="#263EB5"/>
</linearGradient>
<linearGradient id="paint1_linear_146_605" x1="30.2272" y1="51.1366" x2="43.8635" y2="122.955" gradientUnits="userSpaceOnUse">
<stop stop-color="#0052B4" stop-opacity="0.42"/>
<stop offset="1" stop-color="white" stop-opacity="0"/>
</linearGradient>
</defs>
</svg>
