<svg width="64" height="64" viewBox="0 0 64 64" fill="none" xmlns="http://www.w3.org/2000/svg">
<rect width="64" height="64" rx="18" fill="white"/>
<path d="M39.0718 47.8338C38.778 47.9195 38.5425 48.1152 38.285 48.2669C36.1699 49.5071 34.0573 50.7499 31.93 52C30.8955 51.3957 29.8683 50.7939 28.8387 50.1921C27.5857 49.4607 26.3302 48.7292 25.0772 48.0002C25.0043 47.9586 24.9218 47.9268 24.8465 47.8901C24.5866 47.6895 24.3074 47.5207 24.0063 47.3886C23.5279 47.0412 23.0034 46.7673 22.4983 46.4664C21.1505 45.664 19.7979 44.8665 18.4477 44.0665C18.3652 44.0054 18.2826 43.9442 18.1733 43.8635C18.1733 43.6555 18.1733 43.4378 18.1733 43.2176C18.1782 43.0782 18.1879 42.9387 18.1879 42.7969C18.1879 40.5291 18.1879 38.2614 18.1879 35.9936C18.285 35.9178 18.3798 35.8493 18.472 35.7784C18.7926 35.6144 19.1155 35.4579 19.4069 35.2426C21.1214 34.242 22.8382 33.2439 24.5527 32.2409C24.5696 32.2312 24.5745 32.2042 24.5915 32.1749C24.6012 32.0379 24.6085 31.8887 24.6206 31.7199C22.8965 30.7169 21.1821 29.7188 19.4652 28.7207C19.1325 28.5274 18.7999 28.3341 18.4696 28.1409C18.3749 28.0724 18.2826 28.0015 18.1976 27.9403C18.1976 25.3154 18.1976 22.7027 18.1976 20.09C18.285 20.0191 18.37 19.953 18.4526 19.887C18.7731 19.6839 19.0937 19.4833 19.4142 19.2803C20.4439 18.6809 21.4783 18.0889 22.5031 17.4822C23.0276 17.1716 23.5764 16.8976 24.0694 16.5331C24.3827 16.423 24.6474 16.2273 24.9169 16.0389C27.049 14.8035 29.1787 13.5681 31.3108 12.3351C31.4953 12.2275 31.6823 12.1199 31.8863 12C32.4521 12.3254 33.0179 12.6532 33.5837 12.981C35.3152 13.9864 37.0441 14.9919 38.7756 15.9973C38.8314 16.0291 38.8921 16.0511 38.9504 16.078C39.2272 16.3007 39.5624 16.4107 39.8659 16.5844C40.1695 16.7654 40.4706 16.9489 40.7765 17.1251C42.0223 17.8418 43.268 18.5537 44.5138 19.268C44.8076 19.4809 45.1355 19.6301 45.4657 19.7793C45.6017 19.8478 45.6114 19.9677 45.6114 20.1047C45.609 22.6318 45.609 25.1588 45.6138 27.6859C45.6138 27.8327 45.5726 27.933 45.4584 28.0113C45.1452 28.2094 44.8319 28.4075 44.5187 28.6057C42.7557 29.6332 40.9927 30.6631 39.2442 31.6807C39.2248 31.8936 39.2103 32.0648 39.1957 32.2409C40.9781 33.2782 42.7435 34.3081 44.5089 35.3356C44.8198 35.5362 45.1355 35.7319 45.473 35.8884C45.643 35.9618 45.6066 36.1135 45.6066 36.2505C45.6114 38.5353 45.6138 40.8227 45.6187 43.1075C45.6163 43.247 45.6163 43.3864 45.6066 43.5234C45.5944 43.6947 45.6721 43.8928 45.4779 44.0176C44.8125 44.4065 44.1447 44.7882 43.4817 45.182C42.2846 45.8939 41.0922 46.6107 39.8999 47.325C39.6134 47.4742 39.3147 47.6063 39.0718 47.8338ZM30.7814 35.8811C30.7498 35.8542 30.7231 35.8199 30.6867 35.7979C29.0257 34.8243 27.3623 33.8531 25.7013 32.8794C25.6527 32.8525 25.609 32.8232 25.5507 32.8746C25.5726 35.1374 25.5216 37.41 25.5823 39.6973C27.712 40.945 29.8222 42.1853 31.9252 43.4182C33.897 42.2611 35.8397 41.1211 37.8115 39.964C36.4225 39.1518 35.0796 38.3592 33.7294 37.5813C33.0325 37.1801 32.3623 36.7251 31.6289 36.3899C31.3448 36.2187 31.0631 36.0499 30.7814 35.8811ZM31.4735 27.1672C31.7576 27.3776 32.0587 27.5587 32.3793 27.7128C34.339 28.8626 36.2986 30.0148 38.2899 31.1841C38.2899 28.8454 38.2899 26.5679 38.2899 24.2781C36.1432 23.0256 34.0014 21.7755 31.8863 20.5401C29.8999 21.7022 27.9694 22.8324 25.9951 23.987C27.1583 24.6671 28.268 25.3203 29.3827 25.9661C30.0772 26.3673 30.7523 26.8076 31.4735 27.1672Z" fill="#FA0100"/>
<path d="M39.8628 16.5803C39.5592 16.409 39.2217 16.2965 38.9473 16.0739C40.2222 15.3326 41.4995 14.5938 42.7744 13.8526C43.3329 13.5297 43.9011 13.219 44.4475 12.8765C44.8312 12.6368 45.1712 12.649 45.5573 12.8839C47.5121 14.063 49.4742 15.2299 51.4388 16.3919C51.82 16.617 51.9997 16.9154 51.9997 17.368C51.9924 27.1191 51.9924 36.8701 51.9997 46.6212C51.9997 47.1129 51.8079 47.4309 51.3878 47.6682C49.4936 48.7373 47.6092 49.821 45.7515 50.9536C45.2586 51.2545 44.8142 51.2521 44.3091 50.9488C42.6554 49.958 40.9847 48.999 39.3212 48.0254C39.2314 47.9716 39.1173 47.9447 39.0735 47.8297C39.3139 47.6022 39.6151 47.4701 39.9016 47.316C41.0502 47.9911 42.1988 48.6663 43.3499 49.3391C43.9133 49.6693 44.4791 49.9947 45.0376 50.3176C46.9172 49.2241 48.7724 48.1453 50.6641 47.0444C50.0935 46.7117 49.5641 46.4035 49.0371 46.0928C47.8521 45.398 46.6646 44.7008 45.4796 44.0061C45.6738 43.8813 45.5961 43.6832 45.6083 43.5119C45.618 43.3725 45.6156 43.233 45.6204 43.096C47.432 44.1406 49.2435 45.1828 51.0818 46.242C51.0818 36.5325 51.0818 26.8842 51.0818 17.2163C49.2241 16.1106 47.3713 15.0073 45.465 13.8746C45.465 15.8929 45.465 17.8303 45.465 19.7678C45.1372 19.6186 44.8069 19.4694 44.5131 19.2566C44.5131 17.4805 44.5131 15.7069 44.5131 13.8697C43.9983 14.1657 43.5442 14.425 43.0901 14.6892C42.0143 15.3228 40.9385 15.9516 39.8628 16.5803Z" fill="#C4B779"/>
<path d="M18.1704 43.2155C18.1704 43.4357 18.1704 43.6534 18.1704 43.8614C18.2797 43.9421 18.3622 44.0033 18.4448 44.0644C16.745 45.0479 15.0476 46.0313 13.2919 47.0465C15.2079 48.1596 17.0729 49.2433 18.9256 50.3197C20.6352 49.3314 22.3205 48.3577 24.0033 47.3866C24.3044 47.5187 24.5837 47.6875 24.8435 47.8881C24.0738 48.4018 23.2505 48.825 22.4565 49.2971C21.4681 49.8867 20.4676 50.4591 19.4769 51.0487C19.1053 51.2689 18.7678 51.2689 18.389 51.0487C16.3929 49.8769 14.3895 48.7198 12.3861 47.5602C12.2356 47.4722 12.0971 47.3743 12 47.208C12 37.0606 12 26.901 12 16.7169C12.9179 16.1665 13.8407 15.6136 14.7635 15.0607C15.9364 14.3586 17.1141 13.6663 18.2772 12.9447C18.7314 12.6633 19.1199 12.6438 19.591 12.9251C21.3564 13.9795 23.1388 15.002 24.9164 16.0368C24.6468 16.2227 24.3822 16.4209 24.0689 16.531C24.0106 16.5065 23.945 16.4918 23.8916 16.46C22.8401 15.8509 21.7911 15.2418 20.7396 14.6326C20.3171 14.388 19.8897 14.1458 19.4137 13.8743C19.4137 15.7213 19.4137 17.4997 19.4137 19.2807C19.0932 19.4837 18.7726 19.6843 18.4521 19.8873C18.4521 17.9107 18.4521 15.9365 18.4521 13.9036C16.5702 15.024 14.7368 16.12 12.9106 17.2086C12.9106 26.8888 12.9106 36.5469 12.9106 46.2466C13.8043 45.7279 14.6542 45.2265 15.5114 44.7372C16.3953 44.2284 17.2574 43.6755 18.1704 43.2155Z" fill="#C4B779"/>
<path d="M19.4654 28.7199C19.3876 28.7835 19.3998 28.8741 19.3998 28.9597C19.4022 31.0537 19.4046 33.1478 19.4071 35.2418C19.1157 35.4571 18.7927 35.6137 18.4722 35.7776C18.4722 33.2334 18.4697 30.6868 18.4697 28.1426C18.8 28.3334 19.1327 28.5266 19.4654 28.7199Z" fill="#C4B779"/>
<path d="M44.5088 35.3307C44.5768 35.2475 44.5622 35.1472 44.5622 35.0518C44.5622 32.9846 44.5622 30.9175 44.5622 28.8479C44.5622 28.7623 44.5768 28.6742 44.5161 28.5983C44.8293 28.4002 45.1426 28.2021 45.4559 28.0039C45.4607 30.1004 45.4631 32.1969 45.468 34.2934C45.468 34.8218 45.4704 35.3527 45.4728 35.8811C45.1353 35.7245 44.8196 35.5313 44.5088 35.3307Z" fill="#C4B779"/>
<path d="M31.4736 27.1668C31.4736 25.2636 31.4736 23.3579 31.4736 21.462C31.6023 21.3177 31.7578 21.2467 31.901 21.1758C32.088 21.2174 32.2289 21.3152 32.394 21.4155C32.394 21.5109 32.394 21.6088 32.394 21.7042C32.394 23.6099 32.394 25.5131 32.394 27.4188C32.394 27.5167 32.3843 27.6121 32.3794 27.7099C32.0589 27.5582 31.7578 27.3772 31.4736 27.1668Z" fill="#C4B779"/>
<path d="M31.6262 36.3873C30.2445 37.1946 28.8603 38.0043 27.4786 38.8116C27.107 39.0293 26.7355 39.2421 26.3591 39.4598C26.2037 39.4036 26.0726 39.3155 25.9463 39.1956C25.9463 39.0391 25.9463 38.8801 25.9463 38.6721C27.5442 37.7499 29.1614 36.8154 30.7787 35.8809C31.0628 36.0497 31.3445 36.2185 31.6262 36.3873Z" fill="#C4B779"/>
</svg>
