<svg width="74" height="78" viewBox="0 0 74 78" fill="none" xmlns="http://www.w3.org/2000/svg">
<path d="M75.2845 34.3101C78.2491 43.2049 78.9814 52.7172 77.3943 61.9932C77.1424 63.4654 75.9439 64.5862 74.4672 64.7305C64.0295 65.7506 54.1888 70.1032 46.3815 77.153C45.1305 78.2827 43.2354 78.2827 41.9844 77.153C34.1782 70.104 24.3391 65.7514 13.9027 64.7305C12.4263 64.586 11.2281 63.4655 10.976 61.9936C9.38796 52.7181 10.1199 43.2062 13.0848 34.312C14.9166 31.7615 18.6592 29.8441 18.7403 29.888L44.183 44.122L70.5268 29.8438C71.8511 30.4818 74.6567 32.2681 75.2845 34.3101Z" fill="url(#paint0_radial_146_611)"/>
<path d="M75.2845 34.3101C78.2491 43.2049 78.9814 52.7172 77.3943 61.9932C77.1424 63.4654 75.9439 64.5862 74.4672 64.7305C64.0295 65.7506 54.1888 70.1032 46.3815 77.153C45.1305 78.2827 43.2354 78.2827 41.9844 77.153C34.1782 70.104 24.3391 65.7514 13.9027 64.7305C12.4263 64.586 11.2281 63.4655 10.976 61.9936C9.38796 52.7181 10.1199 43.2062 13.0848 34.312C14.9166 31.7615 18.6592 29.8441 18.7403 29.888L44.183 44.122L70.5268 29.8438C71.8511 30.4818 74.6567 32.2681 75.2845 34.3101Z" fill="url(#paint1_radial_146_611)" fill-opacity="0.04"/>
<path d="M75.2845 34.3101C78.2491 43.2049 78.9814 52.7172 77.3943 61.9932C77.1424 63.4654 75.9439 64.5862 74.4672 64.7305C64.0295 65.7506 54.1888 70.1032 46.3815 77.153C45.1305 78.2827 43.2354 78.2827 41.9844 77.153C34.1782 70.104 24.3391 65.7514 13.9027 64.7305C12.4263 64.586 11.2281 63.4655 10.976 61.9936C9.38796 52.7181 10.1199 43.2062 13.0848 34.312C14.9166 31.7615 18.6592 29.8441 18.7403 29.888L44.183 44.122L70.5268 29.8438C71.8511 30.4818 74.6567 32.2681 75.2845 34.3101Z" fill="url(#paint2_radial_146_611)" fill-opacity="0.04"/>
<path d="M41.3936 0.417494C42.3926 -0.139165 43.6074 -0.139165 44.6064 0.417494L84.2987 22.5347C85.3487 23.1198 86 24.23 86 25.4348C86 26.6396 85.3487 27.7498 84.2987 28.3349L74.2405 33.9395L68.3458 37.2249L44.6064 50.4521C43.6074 51.0087 42.3925 51.0087 41.3935 50.452L17.6578 37.2261L11.763 33.9414L1.70133 28.3349C0.651258 27.7498 0 26.6396 0 25.4348C0 24.23 0.651258 23.1198 1.70133 22.5347L41.3936 0.417494Z" fill="url(#paint3_radial_146_611)"/>
<path fill-rule="evenodd" clip-rule="evenodd" d="M38.8627 26.7985C39.7418 28.3961 39.1715 30.4106 37.5889 31.2981L21.7924 40.1562V71.2997C21.7924 73.1272 20.3247 74.6087 18.5143 74.6087C16.7039 74.6087 15.2363 73.1272 15.2363 71.2997V38.209C15.2363 37.0072 15.8818 35.8999 16.9225 35.3163L34.4053 25.5127C35.9879 24.6252 37.9835 25.2009 38.8627 26.7985Z" fill="#EEA9A9"/>
<defs>
<radialGradient id="paint0_radial_146_611" cx="0" cy="0" r="1" gradientUnits="userSpaceOnUse" gradientTransform="translate(44.3541 17.9742) rotate(90.1616) scale(60.0263 67.3064)">
<stop stop-color="#FFAAAA"/>
<stop offset="1" stop-color="#631111"/>
</radialGradient>
<radialGradient id="paint1_radial_146_611" cx="0" cy="0" r="1" gradientUnits="userSpaceOnUse" gradientTransform="translate(59.5903 69.8611) rotate(66.4046) scale(5.92112 18.9446)">
<stop/>
<stop offset="1" stop-opacity="0"/>
</radialGradient>
<radialGradient id="paint2_radial_146_611" cx="0" cy="0" r="1" gradientUnits="userSpaceOnUse" gradientTransform="translate(26.2399 71.3872) rotate(114.041) scale(8.72656 19.9183)">
<stop/>
<stop offset="1" stop-opacity="0"/>
</radialGradient>
<radialGradient id="paint3_radial_146_611" cx="0" cy="0" r="1" gradientUnits="userSpaceOnUse" gradientTransform="translate(43 50.8696) rotate(-90) scale(71.3869 80.0682)">
<stop stop-color="#FFAAAA"/>
<stop offset="1" stop-color="#631111"/>
</radialGradient>
</defs>
</svg>
