<svg width="374" height="161" viewBox="0 0 374 161" fill="none" xmlns="http://www.w3.org/2000/svg">
<g clip-path="url(#clip0_146_599)">
<path d="M157.25 159.375L151.5 160L148.75 167.5L374 178.5V55.25L363.375 59.5L350.625 61.625L342.125 53.125H331.5L325.125 59.5L318.75 65.875L310.25 72.25L303.875 76.5L295.375 68L284.75 74.375L274.125 76.5L261.375 85L255 91.375L248.625 102L244.375 114.75L235.875 119L225.25 123.25H212.5L206.125 136L197.625 144.5L189.125 150.875L180.625 155.125L172.125 148.75L163.625 153L157.25 159.375Z" fill="url(#paint0_linear_146_599)"/>
<path d="M148.5 166L157.25 159.375L163.625 153L172.125 148.75L180.625 155.125L189.125 150.875L197.625 144.5L206.125 136L212.5 123.25H225.25L235.875 119L244.375 114.75L248.625 102L255 91.375L261.375 85L274.125 76.5L284.75 74.375L294.964 67.5195L303.875 76.5L310.25 72.25L318.75 65.875L325.125 59.5L331.5 53.125H342.125L350.625 61.625L363.375 59.5L376.125 53.125" stroke="#00B489" stroke-width="2" stroke-miterlimit="16"/>
</g>
<defs>
<linearGradient id="paint0_linear_146_599" x1="187" y1="-6.22136e-06" x2="187" y2="178.5" gradientUnits="userSpaceOnUse">
<stop stop-color="#00B489" stop-opacity="0.31"/>
<stop offset="1" stop-color="#00B489" stop-opacity="0"/>
</linearGradient>
<clipPath id="clip0_146_599">
<rect width="374" height="170" fill="white"/>
</clipPath>
</defs>
</svg>
