<svg width="32" height="32" viewBox="0 0 32 32" fill="none" xmlns="http://www.w3.org/2000/svg">
<path d="M26.6031 10.5603C26.6194 10.7954 26.6194 11.0305 26.6194 11.2677C26.6194 18.4969 21.116 26.8344 11.0527 26.8344V26.8301C8.08001 26.8344 5.16904 25.9829 2.6665 24.3773C3.09876 24.4293 3.53318 24.4553 3.96869 24.4564C6.43223 24.4586 8.82535 23.632 10.7635 22.1099C8.42234 22.0655 6.3694 20.539 5.65222 18.3106C6.47231 18.4688 7.31733 18.4363 8.12226 18.2163C5.56988 17.7007 3.7336 15.4581 3.7336 12.8538C3.7336 12.8299 3.7336 12.8072 3.7336 12.7844C4.49412 13.208 5.34563 13.4431 6.21664 13.4691C3.81269 11.8625 3.07168 8.66444 4.52337 6.16407C7.30108 9.58204 11.3994 11.6599 15.7989 11.8798C15.358 9.97962 15.9603 7.98843 17.3817 6.65266C19.5852 4.58129 23.0508 4.68746 25.1222 6.88991C26.3475 6.64832 27.5218 6.19873 28.5965 5.56172C28.1881 6.82816 27.3333 7.90393 26.1915 8.58752C27.2759 8.45968 28.3354 8.16935 29.3332 7.72626C28.5987 8.82694 27.6735 9.78571 26.6031 10.5603Z" fill="#BBBECD"/>
</svg>
